<?xml version="1.0" encoding="utf-8"?>
<svg viewBox="2.128 45.184 495.802 412.635" xmlns="http://www.w3.org/2000/svg">
  <path d="M8241 12003 c-41 -78 -114 -280 -145 -400 -9 -34 -36 -113 -60 -175 -47 -119 -99 -351 -131 -583 -33 -245 -51 -316 -141 -571 -60 -172 -103 -327 -136 -494 -17 -89 -22 -151 -22 -275 0 -154 1 -164 32 -260 18 -55 41 -121 52 -147 32 -74 27 -93 -27 -124 -27 -15 -84 -49 -128 -75 -44 -26 -118 -63 -165 -82 -47 -20 -106 -47 -130 -61 -79 -45 -81 -40 -39 124 11 41 31 156 45 255 23 159 26 224 31 555 6 445 -1 562 -69 1130 -16 141 -19 208 -15 345 4 111 0 236 -9 360 -9 105 -18 228 -20 275 -6 90 -19 140 -38 140 -11 0 -47 -111 -73 -230 -8 -36 -27 -121 -44 -190 -16 -69 -38 -184 -48 -255 -11 -72 -31 -177 -45 -235 -46 -195 -77 -474 -96 -865 -5 -110 -16 -279 -24 -375 -9 -96 -18 -269 -22 -385 -6 -185 -4 -228 15 -360 19 -133 27 -160 66 -242 24 -51 63 -112 86 -137 33 -37 39 -49 30 -60 -7 -8 -59 -38 -116 -68 -58 -29 -160 -92 -227 -140 -90 -63 -124 -82 -126 -71 -2 9 3 63 12 122 27 181 36 306 36 495 0 281 -53 758 -81 740 -5 -3 -6 2 -3 10 7 18 -15 128 -24 122 -4 -2 -8 13 -8 33 -1 20 -13 82 -27 136 -62 247 -211 1211 -205 1329 2 42 -1 70 -7 73 -12 4 -47 -100 -64 -187 -18 -93 -31 -300 -41 -636 -5 -177 -11 -332 -14 -345 -3 -13 -13 -110 -21 -215 -9 -106 -20 -205 -24 -220 l-8 -29 -11 35 c-6 19 -18 80 -26 135 -23 155 -129 560 -176 672 -87 204 -135 359 -190 606 -18 80 -25 98 -38 95 -27 -5 -32 -131 -37 -983 -2 -429 -9 -829 -15 -890 -15 -160 -12 -263 9 -410 11 -71 29 -206 40 -300 34 -267 69 -456 122 -646 44 -163 62 -208 105 -274 16 -24 16 -25 -61 -72 -42 -27 -103 -69 -134 -94 -74 -60 -111 -84 -111 -71 0 12 10 20 163 133 97 72 124 99 98 99 -17 0 -181 -127 -316 -244 -101 -89 -135 -124 -135 -141 0 -13 -4 -27 -10 -30 -12 -7 -12 -6 -14 280 -2 191 -6 248 -34 435 -18 118 -39 265 -48 325 -8 61 -29 164 -45 230 -17 66 -39 180 -50 254 -21 144 -37 209 -104 426 -46 149 -66 239 -90 401 -12 86 -25 126 -87 265 -39 90 -121 260 -180 377 -60 117 -115 229 -122 250 -8 20 -29 71 -48 112 -19 41 -43 97 -52 123 -17 45 -39 67 -52 54 -11 -11 59 -481 86 -572 11 -38 27 -106 35 -150 14 -81 20 -131 55 -525 10 -118 37 -348 60 -510 22 -162 54 -421 71 -575 36 -331 82 -549 147 -691 22 -49 49 -119 60 -155 22 -77 80 -163 182 -272 37 -40 75 -90 84 -112 l16 -39 -113 -115 c-62 -64 -120 -127 -129 -141 -23 -35 -31 -20 -35 63 -5 102 -25 163 -104 323 -65 130 -74 158 -124 365 -30 123 -68 274 -84 334 -16 61 -39 160 -51 220 -32 162 -65 264 -135 415 -61 132 -136 305 -210 485 -60 146 -287 555 -350 630 -72 85 -165 179 -165 168 0 -7 -5 -13 -11 -13 -8 0 -8 4 1 14 9 12 -11 40 -114 154 -171 188 -283 283 -321 268 -15 -5 -15 -8 3 -33 10 -16 71 -136 136 -267 64 -132 139 -275 167 -319 69 -107 99 -175 109 -250 7 -44 35 -118 99 -258 49 -107 103 -242 121 -300 17 -57 52 -162 76 -234 25 -71 83 -263 130 -425 46 -162 100 -349 120 -415 19 -66 55 -196 79 -290 38 -149 76 -271 114 -369 19 -48 114 -176 206 -276 48 -52 102 -115 121 -140 l33 -45 -212 -215 c-117 -118 -215 -216 -218 -218 -12 -5 -49 65 -74 138 -13 39 -38 95 -55 124 -16 29 -59 129 -94 222 -35 93 -85 214 -111 269 -25 55 -67 154 -92 220 -25 66 -63 154 -83 195 -21 41 -45 98 -53 126 -8 28 -58 135 -110 240 -53 104 -107 216 -120 249 -26 61 -150 274 -193 332 -19 25 -24 44 -24 88 0 81 -18 232 -45 380 -56 309 -87 632 -65 689 13 35 4 86 -16 86 -8 0 -14 -3 -14 -7 0 -5 -12 -69 -25 -143 -15 -79 -31 -225 -40 -350 -15 -219 -32 -411 -39 -417 -6 -6 -392 388 -452 462 -123 150 -204 274 -204 311 0 15 -8 23 -25 26 -15 3 -25 1 -25 -7 0 -16 99 -263 148 -367 22 -48 71 -140 108 -205 36 -65 86 -152 109 -193 24 -42 91 -152 151 -245 176 -278 175 -277 205 -399 27 -111 43 -221 73 -496 60 -538 95 -755 150 -930 19 -58 37 -121 41 -140 7 -34 83 -240 107 -290 26 -54 48 -79 68 -75 14 3 22 -3 26 -21 4 -14 4 -28 0 -31 -3 -4 -6 1 -6 9 0 9 -7 21 -15 28 -31 25 -13 -9 44 -86 94 -127 136 -165 270 -239 30 -16 56 -35 58 -41 2 -7 -41 -58 -95 -115 -54 -57 -139 -153 -188 -214 -48 -60 -112 -134 -140 -163 -29 -28 -72 -85 -96 -125 -58 -95 -362 -515 -432 -596 -48 -56 -163 -212 -315 -431 -25 -36 -100 -137 -166 -225 -67 -88 -146 -196 -175 -240 -29 -44 -90 -132 -135 -195 -45 -63 -144 -217 -218 -342 -119 -197 -191 -306 -409 -618 -46 -66 -118 -184 -223 -365 -33 -55 -111 -181 -176 -280 -154 -238 -224 -361 -337 -595 -52 -107 -127 -256 -168 -330 -115 -212 -149 -326 -124 -418 15 -58 64 -112 101 -112 42 0 129 35 192 78 268 180 315 221 364 317 14 28 52 91 84 142 106 166 147 258 179 402 16 72 43 166 60 209 16 42 46 122 66 177 62 171 252 525 494 920 81 132 155 255 164 273 9 18 72 117 139 220 68 103 150 230 182 282 92 147 381 575 525 775 47 66 126 179 175 250 331 484 618 866 848 1128 48 54 100 115 117 135 l30 37 0 -28 c0 -15 0 -29 1 -32 0 -2 20 -64 44 -136 24 -72 49 -164 55 -205 12 -87 41 -249 70 -386 44 -208 239 -708 377 -966 52 -97 147 -273 210 -389 136 -254 233 -454 261 -543 70 -219 116 -382 142 -500 30 -139 64 -252 146 -492 36 -104 52 -138 64 -138 16 0 18 23 25 219 6 207 1 358 -25 756 -6 83 -15 231 -20 330 -9 177 -21 253 -74 475 -37 157 -140 437 -216 590 -21 41 -61 131 -89 199 -81 193 -255 525 -389 741 -36 58 -86 148 -112 200 -43 84 -60 107 -156 200 -60 58 -135 123 -166 144 -32 22 -58 45 -58 53 0 11 24 47 118 173 2 3 8 -3 13 -12 10 -18 114 -106 264 -222 55 -42 189 -165 298 -271 109 -107 224 -214 255 -238 132 -100 335 -221 587 -351 40 -21 57 -37 220 -211 197 -211 384 -389 485 -462 260 -189 393 -318 515 -503 49 -74 110 -160 135 -190 25 -30 57 -73 70 -95 13 -22 56 -74 95 -116 39 -41 100 -119 136 -172 79 -119 95 -114 51 15 -31 93 -102 324 -102 335 0 7 138 -119 276 -251 97 -93 115 -107 129 -96 24 20 18 49 -23 95 -51 58 -171 246 -196 309 -12 28 -31 65 -42 81 -12 17 -40 66 -62 110 -79 159 -160 285 -337 529 -58 80 -92 162 -140 336 -82 294 -116 403 -162 520 -25 63 -62 165 -83 225 -86 254 -160 433 -272 654 -65 128 -139 265 -165 305 -26 39 -82 126 -125 194 -127 201 -257 349 -373 427 -33 22 -88 62 -123 89 -35 26 -96 63 -137 81 l-74 32 42 34 c23 19 60 46 82 60 22 14 63 46 90 71 73 66 348 268 360 265 5 -2 15 -21 21 -43 39 -136 141 -256 469 -557 357 -326 720 -700 838 -862 32 -44 101 -140 155 -213 53 -74 113 -159 132 -191 19 -31 53 -81 75 -111 91 -125 181 -253 273 -390 53 -80 109 -158 123 -175 42 -48 259 -340 344 -462 96 -139 151 -201 166 -186 8 8 6 20 -6 43 -9 18 -23 76 -31 129 -16 103 -78 351 -118 469 -39 114 -172 447 -226 562 -26 58 -53 123 -60 145 -22 72 -120 247 -240 425 -158 236 -258 368 -360 474 -222 230 -719 587 -1307 937 -72 44 -134 83 -137 87 -7 12 29 44 194 168 80 59 181 135 224 168 l79 59 29 -36 c16 -20 59 -60 96 -88 90 -71 226 -195 397 -364 146 -144 226 -245 410 -515 135 -197 239 -325 418 -516 421 -445 506 -547 947 -1123 74 -97 195 -253 269 -346 74 -94 158 -206 186 -250 95 -144 130 -149 75 -11 -30 75 -52 135 -185 506 -81 225 -140 357 -252 561 -50 90 -136 256 -192 367 -125 250 -261 442 -558 789 -139 162 -285 290 -513 449 -124 87 -139 96 -152 88 -6 -4 -8 -3 -5 3 4 6 -19 30 -51 54 -31 24 -97 82 -147 129 -171 164 -300 248 -487 316 -130 47 -165 69 -138 85 82 52 293 170 361 204 48 23 108 57 133 74 47 33 66 33 66 2 0 -21 34 -55 117 -117 60 -44 130 -117 311 -326 46 -53 111 -120 145 -150 34 -29 112 -100 172 -159 115 -110 195 -164 512 -348 158 -91 227 -140 353 -247 84 -71 139 -109 233 -159 48 -26 74 -50 158 -152 118 -141 308 -345 284 -304 -5 10 -4 12 4 7 6 -4 8 -12 5 -18 -4 -5 3 -20 14 -32 25 -25 114 -132 193 -231 179 -226 413 -554 499 -700 65 -110 113 -176 121 -168 6 6 1 40 -10 85 -11 42 -23 116 -26 165 -6 84 -33 201 -78 343 -21 67 -157 392 -196 469 -39 75 -24 79 62 17 42 -30 108 -82 146 -114 37 -32 126 -97 197 -144 159 -105 230 -161 239 -187 8 -27 43 -37 62 -18 14 13 9 22 -44 79 -32 35 -77 90 -100 123 -22 33 -55 74 -73 90 -70 65 -261 287 -349 405 -119 159 -198 241 -336 345 -60 46 -127 100 -147 122 -20 21 -82 111 -137 201 -114 186 -189 285 -335 445 -249 271 -482 486 -605 557 -135 78 -231 153 -403 313 -92 85 -181 163 -198 173 -16 10 -30 21 -30 25 0 12 253 136 320 157 36 11 95 32 133 46 37 14 74 26 82 26 8 0 21 -15 29 -32 14 -33 341 -362 506 -509 68 -62 114 -118 235 -288 83 -117 183 -256 223 -309 39 -53 113 -153 164 -222 175 -240 433 -542 677 -795 247 -255 381 -409 501 -575 213 -294 310 -409 405 -477 28 -20 64 -51 80 -69 31 -33 71 -49 81 -33 3 6 -14 31 -38 57 -140 152 -187 225 -308 492 -29 63 -85 185 -125 270 -74 158 -116 273 -133 370 l-10 55 66 -75 c37 -41 206 -217 376 -390 348 -355 454 -471 498 -548 16 -28 34 -50 39 -46 5 3 6 -2 3 -10 -3 -9 -1 -16 5 -16 58 0 -109 533 -273 873 -90 186 -231 439 -289 517 -87 117 -245 310 -337 410 -53 58 -145 170 -205 250 -215 287 -420 506 -600 639 -159 119 -318 254 -381 326 -116 132 -368 318 -442 327 -48 6 -32 24 30 34 35 6 113 21 175 35 l112 24 28 -27 c15 -14 67 -49 115 -77 114 -67 193 -141 275 -260 62 -90 182 -216 451 -475 46 -43 100 -100 121 -127 65 -82 180 -179 347 -292 87 -59 188 -129 224 -156 36 -26 110 -75 165 -108 55 -34 121 -78 148 -98 26 -19 58 -40 71 -45 13 -5 104 -63 202 -130 98 -67 262 -174 364 -238 102 -64 232 -151 290 -193 109 -81 145 -89 93 -22 -16 21 -47 65 -68 98 -21 33 -54 80 -75 105 -20 25 -72 97 -115 160 -258 380 -431 566 -735 793 -243 181 -283 210 -454 325 -93 62 -212 146 -265 186 -53 40 -145 104 -206 142 -60 38 -147 97 -192 131 -45 34 -137 92 -204 128 -67 36 -153 86 -192 111 -43 28 -99 53 -148 67 -76 21 -101 37 -59 37 12 0 87 14 168 30 153 32 184 32 237 0 17 -10 62 -29 102 -44 94 -33 140 -57 363 -186 518 -300 545 -313 710 -350 47 -10 114 -28 150 -39 84 -26 540 -131 741 -170 86 -17 185 -40 220 -51 35 -10 206 -55 379 -99 173 -44 333 -87 355 -97 22 -9 82 -29 133 -44 69 -20 94 -24 102 -15 7 8 -13 21 -73 45 -45 18 -109 47 -142 65 -33 18 -159 83 -280 145 -121 62 -306 159 -411 215 -281 152 -550 267 -722 311 -53 13 -121 33 -150 44 -77 29 -554 146 -692 170 -36 6 -119 26 -185 45 -66 18 -172 45 -235 59 -137 32 -220 56 -220 65 0 7 335 43 577 62 92 8 142 8 165 0 18 -5 62 -15 98 -21 36 -7 103 -26 150 -45 147 -56 576 -184 725 -215 33 -7 107 -26 165 -41 76 -21 128 -29 189 -29 55 0 119 -9 190 -26 98 -24 119 -25 266 -21 88 3 196 10 240 17 87 13 318 7 434 -10 36 -6 143 -15 236 -21 94 -5 198 -12 233 -15 34 -3 62 -2 62 3 0 33 -553 251 -679 268 -175 24 -441 70 -523 91 -231 58 -371 85 -478 94 -63 5 -178 14 -255 21 -83 7 -274 10 -470 8 -214 -3 -332 0 -335 6 -3 6 39 12 110 16 139 8 687 83 830 113 36 8 92 19 126 25 33 6 108 28 165 50 57 21 176 64 264 96 88 32 234 93 325 135 91 43 248 105 349 140 101 34 200 70 220 81 20 10 50 19 68 19 44 0 63 9 63 31 0 23 7 24 -250 -1 -113 -11 -293 -22 -400 -26 -206 -6 -269 -15 -684 -95 -202 -39 -407 -98 -671 -193 -55 -20 -154 -50 -220 -67 -140 -35 -423 -129 -511 -169 -33 -15 -87 -44 -118 -64 -34 -22 -71 -37 -89 -38 -18 0 -86 -4 -152 -9 -66 -5 -148 -10 -182 -13 -35 -2 -63 -1 -63 3 0 4 36 18 79 30 135 37 321 123 426 198 54 37 113 79 133 92 19 13 88 76 151 141 155 156 265 229 522 346 173 79 255 104 459 139 246 42 325 59 323 70 -1 6 -44 18 -95 29 -127 25 -442 27 -543 4 -256 -60 -572 -182 -682 -264 -17 -13 -65 -37 -105 -52 -84 -33 -422 -213 -518 -277 -90 -60 -206 -170 -292 -276 -40 -50 -89 -110 -108 -134 -48 -59 -94 -83 -186 -96 -44 -6 -101 -14 -129 -19 -27 -4 -52 -7 -54 -4 -5 5 56 98 79 119 28 25 93 145 123 226 14 37 44 103 67 148 24 46 55 130 71 194 67 252 223 582 382 805 77 107 129 160 197 199 73 42 96 60 88 69 -14 13 -88 -16 -202 -79 -101 -56 -125 -76 -261 -212 -225 -225 -340 -358 -538 -625 -39 -52 -90 -116 -113 -141 -52 -57 -99 -149 -119 -231 -21 -91 -19 -280 7 -488 3 -24 2 -25 -142 -46 -80 -12 -194 -31 -255 -43 -60 -13 -117 -23 -125 -24 -29 -4 -20 34 34 142 30 60 69 149 86 198 17 48 56 138 85 198 100 201 187 522 206 755 13 171 33 225 162 434 62 99 116 170 250 322 44 50 64 103 35 91 -21 -7 -227 -164 -293 -221 -33 -29 -96 -80 -140 -113 -129 -97 -180 -159 -271 -333 -176 -334 -230 -460 -283 -654 -77 -281 -92 -415 -72 -654 12 -130 11 -151 -3 -184 -9 -21 -24 -41 -33 -47 -10 -5 -85 -25 -168 -46 -82 -20 -169 -45 -192 -55 -24 -10 -43 -17 -43 -15 0 2 5 16 10 31 14 35 41 131 89 319 22 83 73 242 114 355 41 113 87 247 102 298 14 51 38 120 52 154 55 135 66 221 68 498 2 257 19 462 51 598 8 35 12 68 8 73 -10 16 -33 10 -47 -13 -30 -50 -83 -138 -144 -237 -36 -57 -94 -162 -129 -233 -54 -107 -70 -152 -95 -261 -51 -229 -68 -278 -144 -432 -113 -227 -154 -387 -180 -705 -9 -107 -23 -235 -32 -285 -25 -145 -27 -188 -10 -221 15 -29 15 -30 -16 -51 -18 -12 -75 -40 -127 -62 -52 -21 -142 -62 -199 -90 -102 -50 -135 -59 -145 -43 -9 15 81 356 119 447 20 50 46 112 56 138 11 27 45 151 75 275 70 285 76 367 64 841 -13 470 -12 878 1 963 6 38 21 101 34 139 23 66 24 99 4 99 -4 0 -12 -8 -18 -17z m-1157 -419 c-9 -38 -20 -123 -24 -189 -5 -66 -17 -181 -29 -255 -11 -74 -27 -259 -35 -410 -24 -415 -26 -449 -42 -665 -8 -110 -22 -238 -31 -285 -14 -71 -17 -148 -17 -470 0 -384 0 -385 26 -480 14 -52 30 -104 34 -115 7 -19 7 -19 -13 -2 -60 53 -113 229 -113 382 0 44 -5 107 -11 140 -13 75 -12 267 1 405 18 187 29 364 40 627 12 317 29 475 79 736 22 111 45 238 51 282 10 70 25 144 82 400 l13 60 3 -46 c2 -26 -5 -78 -14 -115z m70 -219 c4 -118 2 -166 -4 -140 -5 22 -11 126 -14 230 -3 125 -2 173 4 140 5 -27 11 -131 14 -230z m1966 257 c0 -9 -37 -89 -81 -177 -107 -209 -143 -305 -174 -461 -48 -240 -67 -304 -152 -519 -59 -147 -82 -225 -103 -355 -13 -73 -28 -132 -71 -267 -15 -50 -42 -171 -59 -268 -17 -97 -34 -183 -37 -191 -3 -8 -1 -14 5 -14 5 0 13 10 18 23 6 17 8 12 11 -27 5 -58 -3 -69 -28 -37 -23 28 -24 58 -5 143 8 35 17 122 20 193 10 219 36 381 111 696 14 59 50 156 95 255 89 195 94 209 131 364 34 145 76 263 130 372 43 85 170 287 182 288 4 0 7 -8 7 -18z m867 -89 c-18 -27 -62 -70 -98 -98 -75 -58 -214 -197 -274 -275 -40 -53 -58 -86 -175 -335 -56 -118 -139 -354 -164 -463 -26 -117 -45 -253 -56 -407 -5 -83 -15 -177 -20 -210 -5 -33 -10 -61 -10 -62 0 -2 -4 -3 -9 -3 -10 0 -19 109 -27 320 -5 134 -3 152 20 240 15 52 40 151 57 220 28 113 43 151 171 405 77 154 156 306 174 337 41 67 106 129 240 226 55 40 119 90 144 112 25 22 48 40 53 40 4 0 -8 -21 -26 -47z m-902 -80 c-8 -32 -21 -75 -30 -96 -22 -53 -98 -346 -135 -519 -33 -157 -54 -229 -134 -465 -53 -159 -109 -301 -132 -338 -14 -23 -53 -152 -84 -275 -27 -109 -61 -210 -72 -210 -5 0 -6 10 -4 23 3 12 13 60 22 107 9 47 33 139 54 206 21 66 48 172 60 235 27 147 51 227 110 369 60 141 91 248 130 442 17 82 46 191 64 242 35 97 146 335 158 336 3 0 0 -26 -7 -57z m-966 -198 c-7 -39 -12 -133 -11 -215 3 -179 -22 -615 -37 -653 -6 -16 -11 -67 -11 -115 0 -109 -13 -195 -49 -347 -16 -66 -41 -178 -55 -250 -33 -162 -86 -402 -97 -435 -7 -23 -7 -22 -8 10 -2 92 21 322 39 385 27 98 39 165 29 165 -5 0 -9 -8 -9 -18 0 -10 -11 -56 -25 -103 -19 -60 -29 -125 -36 -229 -5 -80 -15 -192 -23 -250 l-13 -105 -2 91 c-1 115 15 455 34 688 8 99 13 181 11 183 -3 3 -16 -95 -31 -237 -6 -62 -35 -574 -35 -635 -1 -56 -13 -30 -39 81 -34 149 -24 434 24 664 31 148 107 467 145 605 21 77 44 159 50 183 6 23 15 42 21 42 6 0 8 -4 5 -8 -3 -5 -12 -64 -21 -133 -9 -68 -27 -156 -40 -194 -13 -39 -28 -99 -34 -135 -6 -36 -14 -76 -17 -90 -4 -16 -2 -22 4 -15 6 6 18 48 27 93 9 46 25 109 36 140 11 32 26 104 34 162 8 58 26 166 39 240 13 74 29 191 36 260 14 157 39 360 47 380 14 35 24 -136 12 -205z m1695 63 c-17 -18 -46 -64 -64 -103 -18 -38 -37 -77 -42 -85 -5 -8 -20 -40 -35 -70 -82 -175 -113 -255 -113 -293 1 -12 13 14 28 58 30 87 70 165 85 165 5 0 7 -6 4 -13 -3 -8 -8 -40 -10 -73 l-6 -59 11 58 c6 31 15 57 20 57 5 0 7 -8 4 -17 -2 -10 -7 -45 -11 -78 -26 -254 -93 -494 -197 -713 -88 -185 -66 -93 37 154 30 72 64 172 75 220 31 141 60 298 55 302 -8 9 -24 -46 -40 -144 -22 -128 -55 -241 -109 -373 -24 -58 -63 -158 -86 -221 -55 -149 -139 -318 -150 -300 -5 8 -13 -6 -24 -42 -19 -67 -65 -169 -65 -147 -1 9 6 36 15 60 8 24 26 153 40 286 13 133 33 290 45 349 21 110 110 406 128 428 6 7 44 85 84 172 80 174 111 225 187 306 l51 53 -48 -95 c-26 -52 -53 -108 -61 -125 -37 -83 57 74 107 180 22 44 53 93 70 109 16 16 28 34 24 40 -3 6 0 5 8 -1 11 -11 8 -19 -17 -45z m-2696 -18 c1 -28 -2 -50 -8 -50 -5 0 -10 23 -10 50 0 28 4 50 8 50 4 0 9 -22 10 -50z m921 -120 c-18 -198 -30 -273 -59 -364 -72 -228 -209 -767 -241 -951 -12 -68 -22 -183 -26 -300 l-6 -190 42 -168 c22 -93 41 -188 41 -211 l0 -43 -92 -43 c-259 -121 -361 -171 -440 -218 -49 -27 -90 -46 -93 -41 -8 12 48 45 211 127 76 39 171 91 209 117 39 25 96 53 128 62 44 13 57 21 57 35 0 11 -20 65 -44 121 -77 180 -81 199 -80 407 2 265 21 360 170 810 35 107 69 224 75 260 5 36 21 108 34 161 14 52 43 187 65 300 42 211 49 243 55 237 2 -2 0 -51 -6 -108z m1000 -145 c-7 -245 -18 -305 -83 -477 -22 -57 -56 -173 -133 -448 -16 -60 -107 -283 -149 -368 -15 -29 -25 -55 -22 -57 8 -8 67 109 93 183 24 68 33 56 15 -20 -5 -24 -17 -77 -25 -119 -9 -42 -25 -94 -36 -115 -11 -22 -22 -52 -25 -68 -13 -74 -125 -236 -163 -236 -9 0 -21 71 -21 126 0 18 14 67 31 109 16 42 50 152 74 245 41 159 83 280 111 325 18 29 127 333 168 466 19 63 48 182 66 264 28 133 101 428 105 422 1 -1 -1 -105 -6 -232z m-849 190 c0 -19 -4 -35 -10 -35 -5 0 -10 16 -10 35 0 19 5 35 10 35 6 0 10 -16 10 -35z m1576 -32 c-14 -26 -25 -42 -26 -35 0 17 40 95 46 89 3 -3 -6 -27 -20 -54z m-688 -228 l-4 -200 -52 -140 c-28 -77 -69 -193 -91 -257 -42 -123 -67 -179 -55 -123 4 17 42 138 85 270 42 132 82 263 88 292 6 29 10 123 10 210 0 87 3 172 8 188 l8 30 3 -35 c2 -19 2 -125 0 -235z m-2019 50 c-3 -93 -12 -381 -18 -640 -10 -378 -17 -510 -37 -675 -13 -113 -24 -232 -24 -265 0 -33 -5 -93 -10 -134 -10 -75 4 -192 46 -406 17 -86 33 -275 23 -275 -11 0 -67 133 -83 195 -31 124 -38 230 -34 541 3 259 7 328 25 424 21 116 30 226 58 770 21 393 46 665 59 638 0 -2 -2 -79 -5 -173z m3524 102 c-33 -35 -70 -79 -83 -98 l-23 -34 33 30 c24 22 13 1 -44 -82 -120 -175 -189 -334 -237 -550 -17 -73 -43 -171 -60 -219 -16 -48 -28 -91 -26 -97 7 -21 77 195 98 301 38 189 117 383 214 524 85 123 168 227 183 227 8 1 12 -2 10 -6 -9 -20 -49 -85 -117 -192 -105 -165 -171 -309 -235 -516 -89 -284 -113 -343 -205 -510 -71 -127 -104 -172 -137 -187 -15 -7 -24 -20 -24 -34 0 -13 -4 -25 -9 -29 -18 -10 -20 11 -5 54 16 48 38 179 52 322 17 165 130 451 234 594 24 33 63 92 87 130 24 39 62 90 85 114 22 24 32 39 21 33 -25 -13 -65 -56 -96 -103 -13 -20 -59 -89 -102 -153 -104 -158 -194 -357 -228 -504 -5 -24 -14 -89 -20 -145 -11 -114 -36 -257 -51 -296 l-10 -26 -15 35 c-9 20 -19 87 -23 155 -18 263 42 455 207 665 33 41 99 127 147 190 120 158 408 470 434 470 2 0 -22 -29 -55 -63z m-2394 6 c-1 -53 -6 -49 -11 10 -2 20 0 37 4 37 4 0 8 -21 7 -47z m-1050 -199 c1 -131 17 -331 42 -529 10 -88 24 -268 30 -400 10 -202 9 -275 -5 -460 -9 -121 -20 -251 -25 -290 -6 -38 -15 -117 -20 -175 -17 -176 -41 -372 -47 -381 -3 -5 2 -24 10 -41 17 -34 10 -48 -26 -48 -17 0 -18 17 -18 218 0 119 7 338 15 487 13 247 13 302 1 264 -7 -22 -25 -306 -32 -494 -3 -93 -8 -181 -11 -195 -6 -26 -5 -27 -47 200 -9 47 -16 117 -16 155 0 85 35 484 51 575 6 36 8 103 5 150 -8 119 7 682 19 700 6 11 13 -13 22 -80 7 -52 19 -151 28 -220 11 -78 17 -199 17 -322 0 -203 10 -257 23 -122 10 111 -3 357 -28 529 -18 123 -22 195 -22 395 0 253 12 365 26 245 4 -33 7 -105 8 -161z m1030 12 c13 -72 14 -280 1 -471 -9 -137 -48 -366 -89 -515 -11 -41 -25 -103 -30 -138 -5 -34 -26 -97 -45 -141 -20 -43 -39 -93 -42 -110 -4 -17 -11 -34 -15 -37 -12 -7 -16 -28 57 293 67 294 71 322 103 738 6 66 12 203 16 305 3 102 9 208 12 235 l7 50 7 -75 c4 -41 12 -102 18 -134z m1565 152 c-19 -62 -33 -91 -33 -74 -1 28 21 96 31 96 5 0 6 -10 2 -22z m-4121 -145 c2 -43 12 -148 21 -233 9 -85 20 -308 25 -495 5 -212 13 -349 20 -365 9 -20 10 -6 6 70 -2 52 -7 223 -10 380 -4 157 -8 293 -11 303 -3 9 -1 17 4 17 5 0 21 -64 36 -142 15 -79 40 -192 56 -253 16 -60 40 -171 54 -245 14 -74 37 -189 50 -255 28 -133 59 -365 83 -615 19 -209 23 -793 6 -970 -23 -231 -27 -336 -13 -323 7 6 18 38 25 70 l13 58 1 -47 c1 -46 16 -64 27 -33 3 8 68 65 144 126 77 61 140 115 142 121 6 16 -37 277 -82 503 -61 310 -80 477 -80 699 1 183 21 490 34 503 3 4 6 -27 6 -68 0 -41 5 -90 10 -109 12 -40 27 -290 40 -645 8 -221 35 -492 59 -583 6 -20 17 -80 25 -133 9 -52 22 -111 30 -131 14 -33 14 -37 -5 -57 -12 -12 -60 -48 -107 -79 -111 -72 -173 -119 -171 -129 2 -12 22 -4 49 22 14 12 44 33 68 44 24 12 91 59 150 105 59 46 128 95 155 110 26 16 47 31 47 35 0 16 -13 20 -31 10 -80 -43 109 119 196 167 24 14 54 38 65 53 11 16 41 38 67 49 26 11 84 41 128 66 87 50 95 53 95 33 0 -7 -101 -75 -225 -151 -124 -76 -230 -147 -236 -158 -6 -11 -7 -18 -2 -16 4 3 85 51 178 108 539 326 682 403 1140 612 279 128 509 226 685 293 69 26 132 51 140 56 27 15 -45 10 -84 -6 -38 -16 -44 -11 -22 17 15 20 69 42 295 118 133 45 157 50 177 40 12 -7 30 -10 38 -7 25 10 19 -12 -6 -23 -13 -5 -86 -27 -163 -49 -149 -43 -221 -69 -212 -78 3 -3 41 5 84 17 43 12 107 30 143 40 164 47 554 140 625 149 44 6 102 18 129 26 53 16 156 21 141 6 -14 -12 -242 -62 -393 -86 -26 -4 -40 -11 -35 -17 3 -7 1 -8 -5 -4 -16 9 -153 -35 -145 -47 3 -5 -3 -6 -14 -3 -20 6 -143 -16 -295 -54 -158 -39 -608 -210 -781 -296 -59 -30 -183 -84 -275 -120 -92 -36 -226 -94 -299 -129 -152 -73 -284 -150 -688 -402 -88 -55 -176 -106 -195 -114 -39 -15 -247 -168 -440 -323 -131 -105 -170 -134 -410 -303 -238 -168 -259 -184 -360 -283 -53 -52 -119 -113 -146 -135 -27 -22 -119 -107 -204 -190 -85 -82 -204 -194 -263 -248 -70 -64 -138 -140 -194 -215 -109 -147 -231 -292 -246 -293 -7 -1 -20 -1 -29 0 -20 2 -38 -28 -38 -63 0 -30 -67 -123 -158 -217 -35 -37 -90 -101 -122 -143 -78 -102 -121 -153 -283 -335 -119 -134 -181 -211 -356 -446 -112 -149 -151 -207 -146 -216 4 -5 1 -8 -6 -7 -7 2 -41 -35 -76 -82 -35 -47 -97 -128 -138 -180 -118 -150 -245 -344 -245 -374 0 -14 -4 -26 -10 -26 -5 0 -19 -18 -30 -40 -11 -22 -40 -62 -65 -89 -24 -28 -67 -90 -95 -138 -29 -48 -62 -101 -75 -117 -12 -17 -37 -58 -53 -91 -17 -33 -67 -116 -111 -185 -44 -69 -114 -181 -157 -250 -43 -69 -115 -182 -160 -251 -45 -69 -104 -164 -131 -210 -28 -46 -78 -131 -112 -189 -34 -58 -100 -183 -146 -277 -46 -95 -103 -204 -125 -244 -65 -111 -96 -177 -124 -271 -14 -48 -39 -115 -55 -150 -16 -35 -47 -124 -71 -198 -65 -206 -135 -334 -299 -545 -123 -158 -231 -263 -326 -319 -98 -57 -138 -60 -181 -15 -27 29 -29 35 -29 112 0 57 6 97 19 132 26 68 298 577 459 860 124 218 244 411 400 644 38 57 122 192 187 300 128 214 541 849 730 1121 33 47 57 91 55 98 -3 7 -1 11 4 8 8 -5 100 113 231 299 57 79 185 251 453 605 133 175 296 376 446 550 225 261 528 626 572 687 21 31 92 115 157 187 65 72 159 178 209 236 104 121 497 512 658 656 61 53 111 103 113 111 2 7 -3 22 -12 34 -11 17 -12 27 -4 42 11 20 8 32 -62 272 -17 55 -43 152 -59 215 -15 63 -43 155 -60 203 -17 48 -43 131 -57 185 -34 130 -126 598 -170 857 -19 116 -46 266 -59 335 -13 69 -31 179 -40 245 -8 66 -31 188 -51 270 -19 83 -37 161 -40 174 -3 13 -7 21 -10 18 -7 -7 14 -126 42 -235 13 -52 33 -164 44 -250 12 -87 28 -187 35 -224 8 -37 28 -149 45 -250 54 -322 118 -656 149 -778 10 -41 29 -118 41 -170 12 -52 44 -160 71 -240 49 -149 91 -320 78 -320 -4 0 -16 19 -27 43 -11 23 -48 101 -82 172 -111 231 -145 339 -160 505 -5 58 -27 202 -49 320 -22 118 -47 271 -56 340 -8 69 -27 190 -40 270 -13 80 -33 222 -44 315 -11 94 -29 232 -41 308 -25 173 -51 409 -46 414 5 5 37 -65 73 -157 14 -36 47 -159 74 -275 27 -115 60 -249 74 -297 14 -48 30 -120 35 -160 6 -40 24 -179 41 -308 17 -129 41 -280 54 -335 12 -55 28 -136 34 -180 7 -44 27 -145 46 -225 18 -80 52 -224 74 -320 22 -96 45 -201 51 -233 5 -32 19 -79 30 -104 11 -25 29 -94 40 -152 25 -130 60 -273 70 -284 4 -4 19 8 34 28 15 19 35 35 46 35 19 0 163 116 283 227 37 35 117 96 177 135 130 85 124 63 80 286 -16 84 -30 182 -30 220 0 37 -12 139 -26 227 -13 88 -29 214 -34 280 -5 66 -16 161 -24 210 -9 50 -16 122 -16 160 0 39 -5 77 -10 85 -7 11 -10 6 -10 -20 0 -62 29 -359 55 -555 13 -104 32 -269 40 -365 17 -185 36 -317 54 -362 14 -37 -3 -36 -18 0 -27 65 -112 514 -140 742 -11 91 -27 260 -36 375 -8 116 -19 237 -25 270 -27 171 -32 307 -31 835 1 496 -4 671 -25 863 -4 35 -3 57 3 57 6 0 13 -35 16 -77z m538 -230 c-7 -94 -12 -301 -11 -460 1 -159 -3 -355 -10 -438 -7 -82 -14 -277 -17 -432 -5 -327 0 -377 77 -768 44 -225 76 -443 65 -453 -10 -10 -37 80 -46 153 -5 44 -23 114 -38 155 -22 57 -35 125 -55 280 -14 113 -33 259 -42 325 -25 189 -30 478 -10 610 8 61 20 184 26 275 6 91 13 178 15 194 3 17 10 188 15 380 5 193 13 374 17 401 l7 50 9 -50 c7 -34 6 -104 -2 -222z m4364 112 c-29 -60 -77 -175 -105 -255 -91 -258 -135 -363 -138 -335 -8 60 84 317 185 519 52 103 103 190 108 184 2 -2 -21 -52 -50 -113z m-4295 -2 c0 -16 3 -46 6 -68 4 -29 3 -36 -5 -24 -16 24 -26 119 -12 119 6 0 11 -12 11 -27z m6205 19 c35 -7 24 -10 -89 -26 -332 -46 -751 -209 -1236 -479 -80 -44 -181 -103 -225 -132 -44 -28 -102 -63 -130 -79 l-50 -28 70 67 c92 89 116 104 345 223 107 55 247 128 310 162 418 222 791 330 1005 292z m-6831 -96 c3 -36 6 -327 6 -648 -1 -603 0 -618 45 -963 8 -60 15 -141 15 -180 0 -246 122 -957 191 -1114 11 -24 17 -47 13 -50 -16 -16 -80 104 -102 189 -38 149 -75 326 -82 395 -5 44 -16 112 -25 150 -25 111 -63 387 -74 545 -6 80 -11 458 -11 840 -1 382 -2 711 -3 730 -3 74 3 170 12 170 4 0 11 -29 15 -64z m6881 56 c-6 -5 -57 -19 -114 -31 -57 -13 -111 -25 -120 -28 -11 -4 -13 -3 -6 4 11 11 123 49 165 56 46 8 84 7 75 -1z m-6295 -183 c-5 -74 -9 -201 -10 -282 0 -88 -4 -146 -9 -142 -6 3 -8 76 -5 173 7 280 16 417 25 400 4 -8 4 -75 -1 -149z m6005 142 c-6 -5 -64 -27 -130 -50 -134 -45 -412 -170 -508 -227 -34 -21 -100 -66 -147 -99 -47 -34 -115 -78 -152 -99 -38 -20 -68 -39 -68 -42 0 -9 166 82 257 142 48 31 98 63 112 71 45 28 -35 -46 -139 -127 -52 -41 -97 -77 -100 -80 -3 -3 -45 -39 -95 -80 -49 -41 -111 -94 -137 -117 -56 -51 -104 -73 -248 -115 -58 -17 -133 -44 -168 -59 -35 -16 -62 -24 -60 -18 6 17 178 135 351 239 92 56 167 103 167 106 0 7 -135 -63 -227 -119 -142 -87 -221 -140 -337 -226 -59 -45 -110 -81 -112 -81 -2 0 6 15 17 34 32 55 175 202 247 253 94 68 297 196 362 228 30 15 73 40 95 55 69 47 327 175 496 248 139 59 282 110 449 160 45 13 87 15 75 3z m-6417 -336 c143 -563 196 -830 243 -1220 5 -44 17 -132 26 -195 9 -63 17 -162 17 -220 1 -105 -32 -370 -45 -370 -11 0 -16 88 -28 420 -13 355 -57 727 -120 1012 -22 101 -49 228 -60 283 -12 55 -29 134 -40 175 -10 41 -31 140 -46 220 -14 80 -29 156 -32 170 -4 17 -2 22 4 15 6 -5 42 -136 81 -290z m10 150 c21 -55 51 -145 65 -200 20 -75 141 -662 160 -774 1 -8 -4 -16 -10 -18 -8 -3 -13 5 -13 21 0 58 -135 636 -233 999 -13 49 -21 85 -17 80 4 -4 26 -53 48 -108z m1426 -20 c22 -176 28 -254 17 -230 -9 21 -41 278 -41 330 0 56 9 18 24 -100z m-984 29 c0 -31 7 -102 15 -158 8 -55 24 -177 34 -271 11 -93 29 -217 40 -275 10 -58 27 -195 38 -305 20 -226 30 -215 14 17 -13 184 -18 231 -33 326 -6 40 -9 75 -6 77 2 3 15 -39 27 -93 65 -280 86 -537 77 -912 -7 -282 -19 -446 -40 -530 -13 -50 -14 -20 -15 314 0 203 -3 371 -6 374 -3 3 -5 -39 -5 -94 0 -170 -13 -414 -22 -414 -4 0 -8 78 -8 173 0 94 -5 199 -10 232 -6 33 -15 114 -20 180 -6 66 -18 161 -26 210 -17 95 -29 296 -40 664 -6 206 -8 224 -25 228 -17 5 -19 16 -19 92 0 112 11 221 21 221 5 0 9 -25 9 -56z m5600 -15 c-41 -22 -127 -75 -190 -117 -145 -97 -140 -94 -140 -88 0 2 42 36 93 75 90 69 268 171 297 171 8 0 -19 -19 -60 -41z m-7336 -48 c26 -82 46 -196 66 -381 6 -58 24 -197 41 -310 16 -113 38 -281 49 -374 11 -94 22 -177 25 -185 2 -9 22 -141 45 -293 22 -152 51 -331 65 -398 14 -67 29 -168 35 -225 19 -207 42 -278 182 -565 101 -208 138 -290 138 -310 0 -5 -14 -2 -31 7 -39 19 -141 156 -165 220 -9 26 -39 103 -66 171 -69 175 -120 442 -188 984 -17 134 -33 252 -36 263 -14 62 -56 412 -64 545 -22 331 -61 604 -110 780 -21 76 -31 150 -20 150 4 0 19 -36 34 -79z m74 -76 c21 -54 38 -124 28 -114 -6 5 -66 167 -66 178 0 15 21 -20 38 -64z m1711 -8 c-1 -36 -2 -38 -9 -17 -12 36 -12 72 0 65 6 -3 10 -25 9 -48z m7224 -18 c21 -1 -132 -28 -311 -54 -242 -36 -437 -79 -627 -138 -44 -14 -100 -31 -125 -37 -25 -6 -94 -26 -155 -45 -60 -19 -267 -73 -458 -121 -192 -47 -364 -92 -382 -100 -40 -16 -45 -17 -45 -6 0 23 202 103 340 136 80 19 249 68 375 110 365 119 449 140 885 221 130 24 437 49 478 38 8 -1 19 -3 25 -4z m132 -18 c-11 -9 -138 -31 -185 -31 -18 0 -29 4 -25 10 3 6 27 10 53 11 26 0 67 4 92 8 65 12 75 12 65 2z m-235 -30 c-19 -12 -117 -26 -108 -16 9 9 65 23 98 24 19 0 21 -2 10 -8z m-8731 -93 c39 -85 69 -173 211 -617 100 -315 123 -403 155 -595 14 -83 48 -254 75 -381 133 -626 183 -983 150 -1085 -4 -14 -8 -20 -9 -15 -4 38 -42 237 -51 265 -5 19 -15 76 -21 125 -25 222 -149 786 -284 1300 -48 181 -275 1074 -275 1081 0 19 17 -9 49 -78z m8796 62 c-313 -135 -559 -215 -819 -265 -72 -14 -153 -32 -181 -40 -27 -8 -100 -23 -160 -34 -61 -11 -165 -33 -232 -50 -118 -30 -300 -61 -563 -96 -69 -9 -133 -19 -143 -22 -18 -5 -18 -5 0 -19 16 -12 16 -13 1 -14 -9 0 -18 -6 -20 -12 -4 -12 -35 -14 -146 -10 -30 1 -42 6 -39 15 2 7 18 11 37 9 18 -1 56 6 86 17 71 27 259 79 484 135 102 25 273 70 380 101 477 135 1169 293 1285 294 37 0 45 -3 30 -9z m-375 -30 c-74 -15 -278 -64 -454 -108 -175 -44 -314 -77 -310 -72 18 16 501 151 627 174 171 33 174 33 227 34 30 1 0 -9 -90 -28z m339 -15 c-45 -24 -247 -105 -261 -104 -15 1 37 25 172 80 96 39 137 50 89 24z m-2039 -32 c-50 -42 -64 -52 -73 -53 -4 0 15 21 44 46 28 25 53 43 56 40 3 -3 -9 -18 -27 -33z m-7890 -143 c74 -124 294 -621 346 -778 13 -40 44 -108 68 -150 25 -42 54 -100 65 -129 11 -28 41 -84 66 -125 48 -77 134 -320 174 -488 11 -47 29 -112 41 -145 11 -33 38 -121 60 -195 101 -349 249 -760 356 -989 24 -52 43 -95 41 -97 -6 -6 -124 142 -195 245 -153 221 -174 270 -216 491 -9 47 -32 128 -52 180 -20 52 -54 160 -75 240 -21 80 -54 194 -73 254 -20 60 -34 111 -31 114 2 3 8 -6 13 -19 71 -182 92 -244 102 -299 13 -69 37 -137 46 -128 9 10 -43 201 -87 314 -23 60 -65 177 -94 259 -29 83 -74 204 -100 270 -26 66 -71 191 -101 278 -91 267 -199 511 -328 742 -50 89 -99 202 -121 275 -10 35 45 -34 95 -120z m-14 108 c17 -18 48 -55 69 -83 72 -93 179 -207 183 -196 2 6 8 11 14 11 6 0 5 -6 -2 -15 -10 -13 -10 -19 5 -35 17 -19 35 -19 35 1 0 6 -5 7 -12 3 -7 -5 -8 -3 -3 5 5 9 13 7 31 -10 13 -12 22 -24 20 -27 -3 -2 10 -17 27 -33 18 -15 27 -29 20 -29 -7 0 -17 8 -22 18 -6 9 -11 13 -11 8 0 -6 -9 0 -21 12 -11 12 -17 27 -14 32 3 6 2 10 -4 10 -25 0 -19 -24 18 -72 21 -29 63 -91 91 -138 52 -85 394 -770 432 -865 65 -164 135 -411 203 -720 19 -88 55 -221 79 -295 24 -74 58 -179 74 -232 17 -53 60 -159 96 -235 71 -151 81 -196 68 -308 l-8 -70 -19 35 c-57 105 -168 353 -226 505 -52 137 -62 172 -89 310 -28 138 -88 341 -181 605 -39 113 -98 284 -131 380 -78 232 -114 330 -154 418 -19 41 -34 77 -34 81 0 3 -30 56 -66 116 -36 61 -86 151 -111 200 -25 50 -64 122 -86 160 -23 39 -49 86 -59 106 -10 19 -40 62 -66 95 -98 122 -203 284 -184 284 4 0 22 -15 38 -32z m2744 -243 c17 -346 26 -462 43 -580 31 -210 41 -361 43 -625 1 -146 0 -273 -3 -284 -8 -29 -23 1 -23 49 0 22 -7 78 -15 125 -8 47 -20 191 -25 320 -6 129 -18 325 -26 435 -24 302 -31 413 -29 490 1 39 3 133 4 210 4 197 17 134 31 -140z m1021 98 c-7 -31 -9 -22 -9 52 0 85 1 87 9 38 5 -30 5 -69 0 -90z m935 77 c-11 -37 -14 -40 -15 -18 -1 30 19 89 25 73 2 -6 -2 -30 -10 -55z m3149 14 c-45 -38 -75 -57 -81 -52 -6 7 87 77 101 77 6 0 -3 -11 -20 -25z m-4959 -141 c13 -59 38 -162 54 -228 17 -66 37 -169 46 -230 8 -60 21 -144 27 -185 28 -174 6 -794 -34 -993 -14 -69 -49 -177 -57 -177 -9 0 3 243 12 259 13 20 35 469 36 704 0 255 -27 487 -96 804 -23 108 -30 173 -18 161 3 -4 17 -55 30 -115z m6614 98 c0 -5 -30 -19 -67 -32 -38 -12 -81 -28 -96 -36 -68 -34 -460 -122 -638 -143 -52 -6 -168 -25 -259 -42 -173 -31 -532 -80 -539 -72 -10 10 14 15 155 35 278 38 409 60 574 99 91 22 266 60 390 85 228 47 398 87 441 104 31 13 39 13 39 2z m-1787 -53 c-15 -10 -41 -26 -58 -34 -30 -15 -30 -15 -7 3 13 10 35 28 50 40 15 11 31 19 35 16 5 -3 -4 -14 -20 -25z m977 7 c0 -4 -40 -16 -105 -31 -22 -5 -27 -3 -20 4 15 17 125 40 125 27z m-235 -63 c-15 -14 -325 -91 -325 -82 0 11 39 23 182 60 117 30 159 36 143 22z m658 -57 c-80 -26 -261 -61 -269 -52 -3 3 21 11 53 17 32 7 101 22 153 35 122 30 156 30 63 0z m-8941 -61 c18 -31 48 -82 67 -113 18 -31 49 -92 68 -136 20 -44 55 -111 80 -148 62 -97 175 -326 213 -432 30 -84 185 -534 305 -885 29 -85 70 -229 90 -320 65 -294 123 -458 260 -729 103 -206 105 -212 70 -246 -16 -14 -32 -25 -36 -25 -15 0 -10 28 7 34 14 5 13 9 -5 31 -11 14 -23 40 -27 58 -3 18 -23 66 -44 107 -46 92 -98 216 -139 335 -17 50 -49 135 -71 190 -22 55 -69 197 -105 315 -37 118 -80 255 -96 303 -16 48 -41 136 -55 195 -35 151 -110 375 -150 452 -131 251 -230 455 -265 552 -23 62 -64 160 -91 218 -54 113 -128 289 -128 303 0 17 19 -5 52 -59z m1193 -27 c26 -67 44 -147 32 -147 -7 0 -67 187 -67 209 0 22 5 12 35 -62z m6745 53 c-15 -10 -60 -14 -60 -5 0 6 64 23 70 18 2 -2 -2 -8 -10 -13z m-3480 -50 c-16 -66 -24 -59 -9 9 6 29 13 50 16 47 3 -3 0 -28 -7 -56z m2685 10 c-7 -12 -85 -33 -92 -26 -3 3 0 8 8 10 8 2 28 9 44 14 40 14 47 14 40 2z m207 -112 c63 -10 69 -13 52 -25 -23 -17 -62 -17 -149 2 -39 8 -88 15 -110 16 l-40 2 40 7 c64 11 131 11 207 -2z m-4175 -28 c0 -17 -5 -27 -10 -23 -6 4 -8 -8 -4 -33 4 -26 3 -34 -3 -24 -9 15 -11 88 -3 103 9 17 20 5 20 -23z m5498 -12 c7 -7 -1 -9 -24 -4 -18 3 -42 6 -52 6 -11 0 -19 3 -19 8 0 11 83 2 95 -10z m-1565 -7 c-8 -4 -73 -13 -143 -20 -70 -7 -136 -14 -145 -17 -15 -5 -15 -4 -1 5 21 14 171 36 264 39 26 1 35 -2 25 -7z m-500 -10 c0 -19 -30 -32 -111 -46 -171 -32 -157 -31 -136 -7 30 33 247 80 247 53z m2069 -1 c298 -33 374 -44 474 -67 235 -53 376 -81 491 -98 135 -19 146 -22 146 -40 0 -7 17 -16 38 -19 20 -4 45 -10 56 -13 12 -3 16 -1 12 6 -4 5 -22 13 -41 17 -19 3 -33 10 -30 14 13 21 327 -70 452 -132 41 -20 16 -20 -49 0 -101 31 -332 79 -463 97 -66 8 -151 22 -190 31 -192 41 -526 93 -748 114 -59 6 -113 13 -120 15 -6 2 -83 9 -169 15 -86 6 -219 19 -295 30 -76 11 -165 20 -198 20 -42 0 -56 3 -45 10 20 13 567 13 679 0z m314 -4 c30 -3 44 -12 34 -22 -4 -4 -27 -1 -51 6 -25 7 -68 13 -95 13 -28 0 -51 5 -51 10 0 9 33 7 163 -7z m-2323 -45 c0 -5 -8 -12 -17 -15 -44 -14 -379 -76 -392 -74 -35 7 267 80 402 97 4 1 7 -3 7 -8z m1695 -32 c143 -16 298 -36 345 -43 77 -13 387 -67 485 -86 115 -22 491 -102 494 -106 8 -8 -174 -3 -249 6 -41 5 -148 16 -238 25 -90 8 -167 17 -170 19 -7 4 -175 28 -332 47 -52 6 -118 20 -145 30 -28 10 -102 28 -165 39 -110 20 -420 97 -430 107 -7 7 101 -4 405 -38z m870 20 c7 -7 1 -8 -20 -3 -46 11 -67 26 -25 19 19 -3 39 -10 45 -16z m-3035 -7 c0 -18 -42 -52 -63 -52 -12 0 -56 -9 -96 -20 -41 -12 -104 -25 -140 -30 -100 -14 -117 -17 -236 -44 -60 -14 -119 -26 -130 -26 -50 1 95 89 147 90 15 0 80 14 144 30 150 39 374 70 374 52z m1793 -18 c26 -9 49 -20 52 -24 6 -10 -90 16 -115 31 -26 15 11 11 63 -7z m602 7 c3 -5 -8 -9 -25 -9 -16 1 -30 5 -30 10 0 11 47 10 55 -1z m-2755 -21 c-8 -5 -19 -10 -25 -10 -5 0 -3 5 5 10 8 5 20 10 25 10 6 0 3 -5 -5 -10z m2925 0 c3 -5 11 -7 19 -4 7 3 13 -2 13 -11 0 -17 -13 -20 -22 -5 -4 6 -15 8 -26 5 -13 -4 -19 -2 -19 9 0 17 25 22 35 6z m285 -41 c36 -5 92 -14 125 -18 256 -35 992 -176 1010 -193 6 -6 -2 -8 -25 -4 -19 3 -78 10 -130 16 -233 26 -813 133 -1010 186 -91 24 -77 30 30 13z m-3540 -18 c0 -11 -39 -59 -40 -49 0 14 23 58 32 58 4 0 8 -4 8 -9z m1725 -56 c83 -20 213 -50 290 -65 289 -58 818 -201 998 -270 105 -40 306 -129 437 -195 123 -61 430 -238 430 -248 0 -5 -6 -7 -12 -4 -7 3 -56 23 -108 45 -52 21 -104 44 -115 50 -33 18 -261 122 -268 122 -4 0 -56 21 -115 46 -137 59 -183 75 -372 130 -85 25 -209 65 -275 91 -279 106 -325 122 -430 148 -60 14 -144 37 -185 50 -64 20 -201 58 -437 121 -57 16 -75 37 -20 24 17 -4 100 -25 182 -45z m-93 -20 c110 -25 240 -62 338 -96 30 -11 91 -26 135 -34 78 -15 115 -28 452 -151 94 -35 222 -77 285 -94 220 -60 327 -101 653 -249 94 -43 198 -88 233 -102 55 -21 79 -39 53 -39 -5 0 -163 51 -352 114 -189 63 -551 183 -804 266 -449 149 -710 241 -829 294 -102 45 -74 19 35 -33 101 -48 254 -104 659 -239 107 -35 241 -82 298 -103 56 -22 132 -46 168 -55 36 -8 82 -21 102 -29 20 -7 116 -38 212 -69 155 -50 222 -75 197 -76 -72 -1 -1053 224 -1197 275 -24 8 -92 42 -150 74 -58 32 -139 75 -180 96 -40 20 -109 59 -152 85 -42 27 -117 70 -165 96 -48 26 -106 60 -128 74 -22 15 -50 30 -62 34 -13 4 -23 11 -23 16 0 5 26 0 58 -11 31 -11 105 -31 164 -44z m1466 16 c18 -5 65 -13 105 -16 40 -4 86 -10 102 -15 17 -5 50 -11 75 -14 153 -19 225 -28 306 -36 50 -5 111 -14 136 -19 25 -6 103 -14 172 -17 70 -4 129 -10 131 -15 9 -13 -207 -22 -350 -14 -77 4 -161 8 -187 9 -25 0 -42 3 -38 6 18 11 -244 80 -366 97 -39 5 -93 -11 -80 -24 3 -3 12 0 21 7 12 10 15 10 15 -4 0 -9 -8 -16 -17 -15 -21 1 -63 17 -47 18 5 1 19 8 30 16 19 15 19 16 -1 13 -23 -3 -165 42 -165 53 0 7 95 -11 158 -30z m-5021 -93 c-7 -134 -27 -268 -39 -268 -5 0 -7 8 -5 18 3 9 13 95 23 190 10 94 20 172 23 172 2 0 1 -51 -2 -112z m2790 36 c40 -19 103 -58 139 -85 37 -27 101 -73 143 -101 42 -29 105 -77 141 -107 36 -31 98 -78 138 -106 40 -27 99 -68 130 -90 87 -62 321 -209 398 -251 38 -21 103 -61 144 -89 41 -29 113 -74 160 -100 187 -105 334 -212 481 -350 79 -75 161 -155 183 -178 89 -96 432 -534 424 -542 -5 -6 -128 99 -203 174 -85 83 -157 144 -382 324 -154 123 -268 215 -553 447 -188 153 -303 234 -516 366 -119 73 -289 210 -429 346 -49 48 -115 106 -145 130 -31 24 -84 67 -118 96 -35 28 -106 73 -158 98 -97 47 -131 73 -79 60 15 -4 61 -23 102 -42z m2198 26 c11 -5 15 -9 8 -9 -6 -1 -18 -3 -26 -6 -8 -4 -14 0 -14 10 0 17 3 17 32 5z m200 -45 c30 -5 36 -4 25 4 -11 8 -6 9 20 5 44 -8 51 -14 19 -15 -19 -1 -15 -4 16 -14 31 -11 34 -14 15 -14 -33 0 -167 32 -177 43 -4 5 3 6 17 3 14 -3 43 -9 65 -12z m-9245 -225 c5 -102 15 -198 24 -230 15 -52 49 -320 42 -328 -9 -8 -121 132 -134 168 -4 12 -4 51 0 88 4 37 12 157 17 267 6 110 13 216 17 235 l8 35 8 -30 c5 -16 13 -109 18 -205z m6193 206 c14 -14 28 -22 31 -19 3 4 6 1 6 -5 0 -19 -14 -14 -50 18 -18 17 -28 30 -22 30 6 0 22 -11 35 -24z m-63 -6 c23 0 33 -8 53 -43 14 -24 50 -64 80 -90 52 -44 117 -139 150 -218 28 -67 125 -224 210 -340 81 -109 98 -140 60 -107 -10 8 -47 31 -83 51 -84 46 -137 82 -345 237 -192 142 -308 215 -326 204 -7 -4 -9 -3 -6 3 3 5 -36 36 -88 68 -51 32 -108 72 -125 90 l-32 33 49 16 c42 14 343 86 361 86 4 0 0 5 -8 11 -12 9 -12 10 3 5 10 -3 31 -6 47 -6z m3363 -27 c-7 -2 -19 -2 -25 0 -7 3 -2 5 12 5 14 0 19 -2 13 -5z m-10062 -117 c39 -50 109 -159 138 -213 17 -32 65 -101 105 -152 66 -83 168 -253 218 -364 9 -20 44 -79 76 -130 33 -50 81 -132 107 -182 27 -49 74 -133 105 -185 31 -52 69 -116 84 -142 15 -27 29 -48 31 -48 9 0 -43 106 -90 185 -26 44 -59 100 -72 125 -14 25 -86 153 -161 285 -74 132 -156 277 -181 323 -25 45 -71 111 -102 147 -55 64 -118 165 -102 165 11 -1 202 -249 323 -420 56 -80 139 -196 184 -258 45 -62 88 -129 95 -150 7 -20 37 -77 66 -127 61 -104 181 -341 220 -435 15 -36 40 -91 57 -123 16 -32 53 -122 82 -200 73 -193 134 -334 223 -515 41 -83 73 -157 71 -164 -2 -6 -30 24 -62 68 -53 72 -100 161 -170 318 -40 89 -40 62 0 -45 37 -101 88 -192 168 -304 95 -134 197 -285 191 -285 -3 0 -25 19 -48 43 -24 23 -84 81 -134 128 -69 66 -98 101 -121 150 -89 186 -161 349 -246 560 -212 521 -195 485 -329 724 -117 209 -199 343 -337 555 -81 124 -205 322 -275 440 -70 118 -148 236 -172 262 -23 26 -43 55 -43 64 0 15 49 -34 101 -100z m4191 72 c-9 -9 -12 -7 -12 12 0 19 3 21 12 12 9 -9 9 -15 0 -24z m2820 -40 c56 -40 165 -134 243 -208 77 -75 160 -151 185 -170 25 -19 74 -61 110 -95 36 -33 110 -97 165 -141 124 -100 207 -188 432 -458 97 -116 180 -213 183 -216 3 -3 32 -36 65 -75 33 -38 91 -103 129 -145 102 -112 242 -298 336 -445 61 -97 224 -405 278 -527 2 -5 0 -8 -5 -8 -5 0 -19 21 -32 47 -12 26 -75 127 -138 224 -162 250 -540 700 -917 1094 -238 248 -306 322 -454 490 -247 281 -288 325 -350 380 -115 100 -88 58 55 -87 77 -79 162 -170 189 -203 112 -141 292 -338 614 -670 69 -71 159 -170 200 -220 41 -49 107 -126 147 -170 181 -201 386 -464 501 -644 213 -332 263 -427 332 -623 50 -141 37 -143 -44 -8 -57 96 -205 330 -293 464 -59 90 -88 125 -95 118 -8 -8 0 -25 24 -59 37 -51 159 -244 223 -353 21 -36 58 -93 83 -128 24 -35 42 -65 39 -68 -6 -7 -65 66 -192 236 -60 80 -146 191 -191 247 -91 112 -136 177 -209 298 -55 90 -178 270 -291 422 -46 62 -121 145 -191 210 -63 60 -154 155 -201 213 -48 58 -154 174 -237 259 -170 174 -223 240 -328 413 -42 68 -94 152 -116 187 -23 35 -40 66 -37 68 2 3 49 -48 103 -113 54 -64 132 -156 174 -203 42 -47 128 -154 192 -237 64 -83 158 -198 209 -255 51 -57 127 -142 167 -189 41 -47 109 -123 151 -170 43 -47 101 -112 129 -145 64 -73 279 -353 346 -450 92 -134 137 -187 148 -176 6 6 -38 75 -138 213 -240 329 -330 438 -690 832 -101 110 -203 226 -226 256 -150 191 -216 273 -408 500 -71 85 -366 393 -450 471 -42 39 -68 66 -57 61 10 -5 50 -38 89 -73 39 -35 91 -82 115 -104 25 -22 55 -40 68 -40 13 -1 24 0 24 2 0 5 -65 61 -167 147 -88 74 -111 96 -99 96 4 0 52 -33 108 -72z m903 -124 c149 -99 365 -245 480 -323 116 -78 267 -181 338 -228 70 -48 127 -91 127 -97 0 -8 -3 -8 -8 0 -4 6 -101 69 -217 139 -293 178 -608 388 -822 549 -100 75 -185 141 -189 147 -9 15 -22 24 291 -187z m2298 179 c-7 -2 -21 -2 -30 0 -10 3 -4 5 12 5 17 0 24 -2 18 -5z m-7922 -210 c60 -228 134 -557 188 -833 38 -195 126 -709 136 -795 l4 -40 -13 45 c-36 125 -96 368 -140 570 -19 85 -51 227 -70 315 -72 323 -106 508 -141 755 -9 63 -19 131 -22 150 -13 81 12 9 58 -167z m5567 -102 c212 -190 229 -203 507 -382 182 -117 292 -200 601 -454 120 -99 250 -205 289 -235 95 -74 186 -153 181 -158 -2 -2 -21 7 -43 21 -21 13 -89 50 -151 82 -63 32 -148 84 -190 116 -249 188 -399 304 -492 379 -57 47 -154 123 -216 170 -110 84 -194 152 -302 242 -32 27 -86 72 -122 102 -84 70 -370 360 -370 376 0 15 50 -27 308 -259z m-2033 219 c0 -8 -22 -23 -50 -33 -66 -26 -220 -92 -374 -162 -68 -31 -128 -54 -134 -52 -11 3 40 67 54 67 5 0 46 17 91 39 87 40 302 131 353 149 38 14 60 11 60 -8z m-5741 -205 c160 -270 233 -387 322 -520 45 -66 110 -172 146 -235 36 -63 96 -164 133 -225 80 -131 186 -348 245 -500 24 -60 70 -175 103 -255 33 -80 68 -167 77 -195 9 -27 34 -84 55 -125 21 -41 52 -109 70 -151 40 -96 129 -213 233 -307 45 -40 91 -87 104 -105 l22 -32 -39 30 c-22 17 -69 49 -105 73 -158 104 -403 501 -488 794 -26 88 -122 340 -177 463 -7 17 -39 91 -69 165 -54 130 -142 286 -310 550 -316 499 -300 473 -381 625 -27 50 -54 99 -62 110 -7 11 -13 26 -13 34 0 26 21 -4 134 -194z m6950 77 c133 -148 173 -202 287 -394 118 -197 241 -361 352 -468 49 -47 146 -152 217 -235 143 -170 215 -239 233 -229 6 4 9 4 5 -1 -5 -5 19 -36 51 -69 89 -92 213 -251 270 -346 18 -30 59 -91 91 -135 32 -44 77 -115 101 -157 47 -82 164 -239 241 -325 45 -50 73 -91 66 -98 -6 -6 -282 268 -338 335 -30 36 -106 119 -169 185 -129 136 -234 260 -410 485 -67 85 -157 200 -201 255 -43 56 -129 157 -190 225 -128 142 -239 287 -240 312 0 18 -71 125 -223 336 -52 73 -121 183 -153 245 -31 61 -68 129 -81 149 -22 36 -27 48 -20 48 2 0 52 -53 111 -118z m-745 73 c27 -13 66 -43 87 -65 22 -23 77 -67 124 -98 47 -31 124 -93 171 -138 47 -44 108 -96 135 -114 27 -19 99 -70 159 -115 61 -45 128 -92 150 -105 22 -13 63 -45 90 -70 28 -26 77 -68 109 -94 33 -26 78 -72 100 -101 23 -29 102 -129 176 -221 345 -429 556 -722 771 -1070 21 -34 45 -86 54 -115 9 -30 30 -85 46 -123 34 -77 32 -97 -3 -40 -49 79 -208 315 -295 436 -103 143 -498 642 -581 732 -30 33 -83 98 -119 145 -35 47 -81 104 -102 126 -20 22 -58 67 -83 101 -76 100 -337 357 -418 412 -41 29 -122 93 -180 143 -58 50 -123 105 -145 121 -22 16 -58 46 -80 66 -22 21 -75 67 -119 102 -136 112 -133 109 -113 110 10 0 39 -11 66 -25z m-5689 5 c0 -5 -5 -10 -11 -10 -5 0 -7 5 -4 10 3 6 8 10 11 10 2 0 4 -4 4 -10z m7311 -307 c57 -51 129 -111 160 -135 31 -24 108 -86 170 -138 146 -122 349 -280 513 -400 33 -24 107 -81 163 -126 129 -105 197 -150 302 -203 46 -23 124 -67 172 -97 98 -61 363 -263 356 -271 -3 -3 -18 4 -34 15 -15 11 -91 55 -168 98 -77 43 -191 108 -253 146 -63 37 -116 68 -118 68 -4 0 -244 155 -351 227 -39 26 -172 119 -295 206 l-223 157 -150 171 c-82 94 -174 192 -204 218 -155 131 -237 210 -267 257 -19 29 -34 56 -34 60 0 4 35 -31 79 -77 43 -46 125 -125 182 -176z m-7401 206 c0 -6 -4 -7 -10 -4 -5 3 -10 11 -10 16 0 6 5 7 10 4 6 -3 10 -11 10 -16z m4742 -37 c-10 -27 -25 -48 -35 -50 -9 -2 -17 1 -17 7 0 6 7 11 15 11 11 0 15 11 15 38 0 43 6 53 25 45 12 -4 11 -13 -3 -51z m1088 24 c0 -8 -5 -16 -11 -18 -13 -4 5 -47 25 -60 15 -10 2 -20 -17 -12 -9 3 -13 12 -10 20 3 8 1 14 -5 14 -5 0 -8 10 -7 23 1 12 3 28 4 35 1 17 21 15 21 -2z m86 -88 c4 -7 3 -8 -4 -4 -7 4 -12 3 -12 -2 0 -16 167 -158 176 -149 3 2 -12 19 -33 36 -45 37 -34 42 14 5 18 -14 32 -31 31 -37 -2 -7 98 -111 221 -232 289 -284 416 -430 580 -665 41 -58 117 -161 171 -230 53 -69 123 -163 155 -210 119 -175 151 -217 230 -310 44 -52 108 -129 140 -170 33 -41 105 -122 160 -180 55 -58 116 -127 135 -154 19 -26 66 -84 103 -129 38 -44 80 -103 94 -131 33 -66 137 -221 178 -266 17 -19 45 -53 61 -74 23 -32 25 -37 9 -29 -25 14 -163 171 -235 268 -44 60 -240 347 -279 409 -19 30 -95 115 -170 188 -400 395 -653 671 -748 821 -13 21 -59 80 -103 132 -104 123 -176 221 -277 375 -197 300 -293 413 -533 624 -122 107 -122 108 -73 125 1 1 5 -4 9 -11z m-6005 -195 c39 -52 104 -132 143 -177 170 -191 243 -299 355 -526 58 -119 121 -257 139 -308 18 -50 69 -171 113 -269 146 -321 394 -921 384 -931 -2 -3 -21 31 -41 74 -20 43 -70 149 -111 233 -42 85 -122 270 -178 410 -121 303 -157 383 -286 637 -149 296 -224 422 -334 569 -57 74 -133 180 -169 234 -37 54 -92 127 -122 162 -30 34 -54 67 -54 73 1 16 80 -73 161 -181z m5245 39 c71 -70 168 -171 215 -223 112 -122 385 -462 519 -645 58 -79 152 -205 210 -280 122 -158 250 -333 410 -559 63 -88 170 -236 240 -330 155 -210 343 -474 360 -506 7 -13 41 -67 76 -119 51 -78 71 -120 109 -234 25 -77 43 -141 40 -144 -7 -7 -5 -10 -55 83 -169 314 -242 424 -499 744 -192 238 -214 266 -410 526 -206 273 -286 387 -555 790 -265 396 -448 635 -641 835 -108 111 -173 190 -157 190 5 0 67 -58 138 -128z m-157 35 c49 -103 277 -396 303 -389 5 1 7 -2 3 -7 -3 -6 25 -59 61 -118 88 -142 127 -213 121 -219 -18 -18 -586 253 -719 343 -106 72 -332 193 -360 193 -9 0 -24 3 -33 6 -14 6 -14 8 2 19 72 50 521 252 565 254 12 1 29 -24 57 -82z m1386 -90 c55 -39 141 -103 190 -142 50 -40 125 -96 168 -125 79 -54 97 -72 206 -210 33 -41 98 -118 145 -170 47 -52 117 -136 156 -187 38 -51 169 -217 291 -370 228 -285 268 -348 309 -482 10 -33 17 -61 16 -61 -3 0 -88 122 -171 245 -40 61 -104 155 -141 210 -37 55 -100 141 -139 190 -39 50 -102 133 -141 185 -39 52 -106 138 -150 190 -43 53 -110 136 -149 185 -71 92 -113 137 -175 183 -19 15 -69 54 -112 87 -93 72 -172 131 -281 208 -94 66 -227 176 -227 188 0 12 90 -42 205 -124z m-1041 -231 c245 -310 280 -359 512 -706 379 -568 522 -763 765 -1045 115 -134 408 -528 488 -657 110 -176 266 -488 243 -488 -4 0 -24 29 -46 65 -21 36 -42 63 -46 60 -5 -3 -12 0 -16 6 -4 8 -3 9 4 5 22 -14 12 8 -46 94 -168 248 -341 479 -468 625 -222 255 -277 314 -286 308 -6 -3 -8 -1 -5 4 4 6 -42 68 -101 138 -199 237 -263 320 -382 497 -121 179 -360 567 -439 713 -24 44 -65 112 -91 150 -27 39 -67 102 -89 142 -23 40 -76 109 -119 155 -43 46 -92 101 -109 123 -33 43 -73 117 -73 136 0 18 215 -212 304 -325z m12 142 c41 -44 74 -93 74 -110 0 -13 -12 -1 -96 106 -49 60 -33 63 22 4z m882 35 c156 -98 395 -329 587 -568 78 -97 187 -230 237 -290 36 -43 375 -467 467 -585 111 -142 158 -209 328 -470 131 -202 148 -230 136 -230 -4 0 -33 37 -63 82 -30 45 -91 121 -136 168 -102 108 -150 162 -200 225 -21 28 -73 88 -114 135 -42 47 -91 108 -110 135 -19 28 -70 97 -113 154 -43 57 -81 111 -85 120 -3 9 -42 63 -86 120 -121 154 -227 296 -261 346 -95 140 -391 460 -565 610 -67 57 -79 84 -22 48z m-3257 -213 c-2 -93 -7 -128 -27 -185 -14 -38 -39 -113 -57 -165 l-32 -95 -3 45 c-2 24 3 69 12 100 8 30 29 132 46 225 46 254 41 231 53 209 6 -11 10 -66 8 -134z m1752 -168 c97 -86 180 -152 354 -283 28 -21 82 -55 120 -75 37 -21 97 -56 133 -79 36 -23 115 -70 175 -104 151 -85 252 -150 289 -186 25 -25 98 -132 114 -168 5 -11 -111 53 -323 177 -93 55 -224 131 -290 169 -191 110 -266 169 -489 387 -116 113 -249 237 -296 275 -47 39 -100 84 -118 100 -19 17 -40 34 -48 38 -8 4 -14 14 -14 22 0 22 277 -170 393 -273z m851 155 c50 -40 127 -99 171 -132 217 -158 487 -424 626 -616 41 -56 94 -128 119 -158 24 -31 75 -105 113 -164 37 -60 90 -141 117 -181 54 -79 182 -339 235 -476 18 -47 45 -112 60 -145 56 -122 105 -249 91 -235 -8 8 -47 76 -86 150 -40 74 -92 164 -115 200 -23 36 -79 125 -124 198 -46 73 -130 199 -188 280 -97 135 -168 230 -422 562 -53 69 -166 197 -252 285 -86 88 -179 187 -206 220 -28 33 -65 74 -83 90 -17 17 -46 50 -62 75 -17 25 -47 62 -66 83 -56 58 -28 44 72 -36z m-967 24 c153 -102 322 -196 444 -247 74 -30 161 -68 194 -84 33 -16 95 -44 138 -64 102 -46 163 -91 193 -142 22 -37 35 -85 16 -59 -15 23 -71 55 -138 80 -38 14 -109 44 -158 67 -126 58 -506 279 -580 336 -33 27 -82 63 -108 81 -41 27 -80 71 -64 71 3 0 31 -17 63 -39z m-1393 -132 c-5 -114 -9 -147 -17 -129 -14 37 4 302 20 286 3 -2 1 -73 -3 -157z m2326 57 c0 -15 -34 20 -54 56 -18 32 -18 32 17 -7 20 -22 36 -44 37 -49z m1300 60 c0 -2 -8 -10 -17 -17 -16 -13 -17 -12 -4 4 13 16 21 21 21 13z m-3790 -206 c4 -47 18 -110 29 -140 12 -30 21 -56 21 -56 0 -1 -48 -36 -106 -79 -72 -52 -105 -71 -102 -59 116 466 122 486 137 452 7 -18 17 -71 21 -118z m2851 -245 c292 -316 650 -797 921 -1236 61 -99 226 -382 235 -404 9 -23 -93 115 -501 675 -453 622 -792 1075 -912 1217 -24 28 -44 54 -44 58 0 6 181 -180 301 -310z m-2652 240 c0 -16 -4 -39 -9 -50 -6 -14 -9 0 -9 45 -1 45 2 60 9 50 5 -8 9 -28 9 -45z m1529 -123 c188 -190 333 -307 473 -383 121 -65 320 -180 469 -272 58 -35 132 -78 165 -95 68 -34 92 -57 129 -124 29 -53 28 -57 -12 -29 -126 89 -618 408 -675 438 -195 103 -509 370 -692 591 -60 72 -5 23 143 -126z m197 43 c63 -40 329 -176 455 -233 160 -72 209 -108 264 -196 27 -42 46 -79 44 -82 -7 -6 -462 255 -573 329 -165 109 -335 240 -335 258 0 9 63 -24 145 -76z m-4877 -205 c41 -85 99 -222 129 -305 30 -82 78 -211 108 -285 30 -74 75 -209 100 -300 26 -91 57 -192 69 -225 13 -33 33 -94 45 -135 12 -41 35 -113 52 -160 17 -47 40 -132 51 -190 43 -227 61 -295 100 -368 37 -70 38 -73 16 -67 -80 25 -215 143 -288 252 -30 45 -56 80 -58 78 -3 -2 2 -15 11 -29 14 -21 14 -26 2 -36 -8 -7 -15 -11 -16 -9 0 2 -1 27 -3 56 -1 35 -9 62 -22 80 -19 25 -132 261 -163 340 -8 18 -16 31 -20 29 -3 -2 -6 8 -6 22 -1 15 -22 128 -48 252 -26 126 -57 319 -71 440 -36 312 -85 679 -96 725 -5 22 -10 45 -10 50 0 19 44 -61 118 -215z m3941 100 c94 -48 130 -76 315 -241 46 -42 172 -136 278 -209 106 -73 216 -153 243 -178 182 -164 459 -462 589 -635 98 -132 328 -524 460 -784 42 -85 13 -61 -43 35 -79 134 -169 272 -211 322 -43 53 -200 291 -250 380 -25 44 -64 89 -135 154 -55 50 -188 177 -295 282 -107 104 -262 246 -345 314 -82 68 -195 169 -251 225 -87 87 -185 174 -184 163 2 -16 317 -322 435 -421 83 -69 196 -170 252 -224 56 -54 160 -152 230 -218 193 -181 262 -255 290 -310 14 -27 48 -81 75 -120 129 -183 319 -469 399 -600 73 -121 199 -367 219 -429 7 -22 28 -72 46 -113 39 -86 31 -99 -10 -15 -15 31 -58 104 -96 162 -37 58 -96 157 -130 220 -34 63 -85 146 -112 184 -27 38 -86 129 -130 203 -98 164 -285 415 -404 543 -49 52 -155 174 -235 270 -154 184 -176 206 -304 310 -44 36 -156 139 -250 230 -180 174 -316 287 -462 383 -108 71 -271 181 -298 200 -11 8 -18 18 -15 21 3 3 80 -42 170 -100 90 -57 178 -113 194 -123 17 -11 46 -29 64 -40 17 -11 32 -17 32 -13 0 4 -60 45 -133 91 -131 84 -287 190 -287 195 0 10 208 -72 289 -114z m-752 46 c-9 -26 -27 -15 -27 16 1 31 1 32 15 13 9 -10 14 -24 12 -29z m471 -18 c177 -130 590 -529 640 -618 16 -30 60 -91 96 -135 37 -44 97 -118 134 -164 132 -165 225 -277 271 -326 26 -27 78 -88 116 -135 38 -47 101 -121 140 -166 40 -44 98 -114 131 -155 32 -41 99 -121 149 -179 50 -58 133 -157 184 -220 52 -63 99 -119 106 -125 19 -17 149 -197 180 -250 16 -27 50 -77 75 -110 59 -75 200 -285 200 -296 0 -5 -2 -9 -4 -9 -3 0 -50 66 -105 148 -55 81 -139 194 -186 252 -48 58 -148 182 -223 275 -208 259 -493 588 -641 740 -54 55 -128 134 -166 175 -90 98 -296 373 -353 469 -24 42 -61 94 -81 116 -20 22 -74 90 -121 150 -101 131 -140 172 -386 389 -172 152 -237 216 -219 216 3 0 32 -19 63 -42z m469 -336 c68 -51 142 -116 165 -144 42 -50 238 -225 338 -303 88 -68 201 -184 328 -337 68 -81 161 -191 209 -245 101 -115 300 -379 364 -481 24 -40 87 -139 140 -220 52 -81 124 -196 159 -257 35 -60 80 -135 100 -165 21 -30 52 -84 70 -120 18 -36 56 -103 85 -150 67 -109 82 -138 111 -219 l24 -66 -23 26 c-13 14 -66 96 -118 183 -51 87 -124 197 -161 245 -37 47 -81 110 -99 139 -37 63 -157 218 -249 322 -37 41 -91 107 -120 145 -30 39 -79 97 -110 130 -31 33 -76 87 -100 120 -24 33 -71 92 -105 131 -155 181 -247 287 -330 379 -50 55 -119 138 -155 185 -56 75 -139 176 -193 235 -10 11 -46 58 -80 105 -109 152 -162 214 -301 350 -194 191 -185 193 51 12z m-1187 -63 c39 -84 68 -122 198 -255 81 -83 223 -220 317 -305 216 -196 636 -601 696 -671 25 -29 86 -107 136 -173 50 -66 129 -162 176 -213 101 -111 237 -299 367 -507 51 -82 134 -213 184 -290 51 -77 114 -178 141 -225 26 -47 65 -111 87 -142 55 -83 168 -277 168 -291 0 -6 -15 11 -34 40 -18 28 -58 82 -88 119 -67 85 -126 170 -203 294 -106 171 -365 559 -443 663 -99 133 -338 438 -473 602 -125 151 -462 490 -478 480 -7 -4 -10 -1 -9 7 2 7 -3 12 -10 10 -8 -1 -11 1 -9 5 2 5 -5 17 -16 28 -11 11 -16 14 -12 6 5 -10 4 -12 -4 -7 -6 4 -9 11 -6 16 3 5 -45 57 -106 117 -296 288 -449 447 -513 536 -65 89 -110 183 -83 174 6 -2 14 -10 17 -18z m181 -143 c61 -53 156 -128 211 -167 63 -45 181 -150 321 -288 122 -119 269 -261 326 -316 57 -55 156 -158 220 -229 139 -155 470 -567 531 -663 24 -37 67 -104 96 -148 28 -44 66 -107 83 -140 17 -33 37 -69 46 -79 26 -34 28 -10 2 31 -14 22 -43 75 -65 119 -44 87 -155 260 -232 360 -246 320 -484 595 -660 759 -35 33 -102 97 -149 143 -84 81 -99 94 -85 70 4 -8 3 -9 -2 -5 -5 5 -9 14 -9 20 0 21 -326 317 -435 397 -92 67 -270 221 -278 242 -7 16 17 8 45 -15 15 -13 73 -51 128 -85 97 -61 126 -82 277 -207 40 -34 98 -79 128 -100 30 -22 85 -63 122 -93 40 -32 72 -51 79 -46 7 4 9 3 6 -3 -4 -6 7 -21 24 -34 17 -13 63 -51 103 -85 39 -34 127 -103 196 -155 335 -250 345 -260 569 -579 231 -330 469 -822 566 -1171 15 -52 36 -120 47 -152 36 -100 13 -73 -57 65 -120 237 -177 343 -196 363 -39 41 -17 -13 102 -243 119 -230 144 -294 58 -150 -23 40 -97 156 -164 258 -67 102 -163 251 -213 332 -173 277 -262 401 -436 603 -48 55 -103 125 -123 155 -54 80 -234 280 -306 340 -34 29 -150 137 -257 240 -107 103 -224 213 -260 246 -287 261 -510 499 -493 527 3 5 10 3 15 -6 5 -9 58 -59 119 -111z m2190 34 c38 -22 71 -46 75 -52 8 -13 -98 44 -135 73 -40 32 -11 21 60 -21z m-2021 -27 c30 -20 82 -53 115 -73 34 -19 108 -67 165 -107 58 -40 164 -111 235 -159 236 -158 495 -366 599 -482 77 -87 161 -200 153 -208 -3 -3 -17 12 -32 33 -16 21 -104 97 -198 168 -240 185 -250 192 -348 273 -49 40 -93 71 -99 67 -5 -3 -15 5 -22 19 -6 14 -14 26 -18 26 -4 0 -27 17 -50 38 -24 20 -69 55 -100 77 -101 71 -204 152 -235 185 -16 18 -66 57 -110 86 -44 29 -91 62 -105 73 -42 34 -8 23 50 -16z m5725 -54 c44 -26 89 -57 100 -70 l20 -23 -35 22 c-19 12 -74 46 -122 75 -49 28 -88 56 -88 60 0 9 16 1 125 -64z m-7647 -444 c92 -113 93 -115 33 -65 -71 58 -141 147 -191 242 -22 42 -40 79 -40 83 0 4 30 -35 67 -86 36 -52 96 -130 131 -174z m4549 121 c23 -17 45 -37 47 -44 8 -17 -5 -9 -81 51 -99 77 -73 72 34 -7z m-3670 2 c6 -7 13 -42 15 -78 4 -52 15 -84 53 -160 62 -123 103 -218 180 -420 63 -165 172 -526 162 -536 -9 -9 -90 47 -152 106 -33 31 -87 76 -120 100 -33 24 -167 151 -298 282 -131 131 -258 249 -282 264 -35 20 -42 29 -37 44 13 33 429 410 453 410 9 0 21 -6 26 -12z m-372 -60 c-34 -40 -121 -118 -132 -118 -3 0 14 21 37 48 84 93 170 157 95 70z m597 -35 c14 -16 50 -68 80 -118 30 -49 92 -148 137 -220 85 -133 201 -359 244 -475 48 -127 143 -331 241 -514 38 -71 84 -165 102 -210 18 -44 44 -108 58 -141 14 -33 26 -68 26 -78 0 -25 144 -372 259 -626 54 -119 108 -243 121 -275 13 -33 48 -105 78 -160 30 -56 89 -172 132 -258 42 -87 80 -155 83 -152 8 9 -29 92 -146 324 -60 118 -130 265 -156 325 -27 61 -91 205 -143 320 -133 294 -162 364 -220 543 -36 111 -76 205 -136 322 -47 91 -112 219 -146 285 -34 66 -83 179 -109 251 -63 172 -165 378 -267 539 -46 72 -103 162 -126 201 -24 39 -62 92 -84 117 -22 25 -40 48 -40 52 0 3 21 -9 47 -27 79 -56 225 -209 314 -329 130 -176 144 -197 209 -307 37 -62 65 -100 72 -96 7 4 8 2 4 -4 -4 -7 26 -62 69 -126 87 -131 171 -309 243 -517 28 -79 75 -208 106 -286 30 -78 94 -267 141 -420 47 -153 104 -331 126 -396 22 -65 37 -122 33 -128 -3 -6 0 -18 8 -27 8 -9 32 -71 52 -137 23 -71 77 -200 133 -315 52 -107 107 -226 123 -265 38 -97 139 -415 131 -415 -14 0 -68 97 -75 133 -9 46 -103 276 -122 296 -29 31 -24 0 11 -68 36 -73 101 -259 92 -267 -13 -13 -157 197 -272 401 -38 66 -167 318 -287 560 -120 242 -248 496 -283 565 -91 177 -223 452 -293 610 -33 74 -96 214 -139 310 -75 164 -116 266 -193 485 -18 50 -62 151 -98 225 -36 74 -91 194 -122 265 -31 72 -73 157 -93 190 -20 32 -34 61 -32 63 9 10 57 -31 100 -86 27 -34 69 -112 106 -197 34 -77 97 -210 139 -295 43 -85 95 -195 116 -245 21 -49 51 -115 67 -145 81 -151 128 -257 168 -375 27 -80 91 -226 167 -380 68 -137 132 -271 143 -297 10 -26 66 -145 125 -265 58 -120 130 -268 160 -328 29 -61 60 -128 68 -150 32 -88 352 -726 376 -748 23 -22 0 32 -68 163 -101 195 -259 514 -293 593 -18 40 -90 191 -161 337 -72 146 -143 299 -159 342 -15 42 -70 159 -122 260 -116 228 -174 361 -243 552 -29 81 -71 178 -93 215 -22 36 -67 127 -100 201 -32 74 -73 162 -89 195 -16 33 -58 121 -92 195 -154 334 -169 361 -236 427 -35 35 -64 65 -64 68 0 9 67 -36 92 -62z m4408 -83 c104 -86 162 -149 175 -190 6 -22 2 -20 -32 15 -21 22 -95 86 -163 142 -108 88 -160 142 -160 168 0 9 63 -38 180 -135z m-4527 76 c19 -29 54 -98 77 -152 23 -55 84 -187 136 -294 51 -107 111 -244 132 -305 42 -117 94 -250 118 -300 32 -70 149 -337 184 -420 39 -93 251 -524 425 -865 141 -274 276 -552 272 -557 -5 -4 -121 174 -206 316 -55 91 -145 253 -269 481 -19 36 -43 76 -52 90 -9 14 -30 55 -47 91 -17 37 -46 91 -65 120 -69 108 -208 388 -263 529 -31 80 -64 165 -75 190 -10 25 -38 115 -63 201 -41 141 -151 424 -183 474 -21 33 -129 284 -153 358 -20 58 -23 97 -8 97 2 0 20 -24 40 -54z m1167 -98 c0 -6 -6 -5 -15 2 -8 7 -15 14 -15 16 0 2 7 1 15 -2 8 -4 15 -11 15 -16z m3363 -62 c109 -89 177 -156 161 -156 -6 0 -23 14 -40 31 -16 17 -54 46 -84 66 -79 51 -172 143 -145 143 3 0 51 -38 108 -84z m-4028 -116 c57 -71 120 -168 113 -176 -3 -2 -23 24 -45 58 -22 35 -71 101 -108 148 -37 47 -56 74 -41 60 15 -14 52 -54 81 -90z m4033 45 c46 -26 254 -197 248 -203 -4 -3 -32 13 -156 94 -36 23 -75 47 -86 53 -21 10 -70 81 -56 81 4 0 26 -11 50 -25z m-618 -15 c0 -5 -2 -10 -4 -10 -3 0 -8 5 -11 10 -3 6 -1 10 4 10 6 0 11 -4 11 -10z m-5811 -24 c7 -8 13 -27 14 -43 1 -15 8 -34 15 -42 16 -16 11 -24 -11 -15 -9 3 -20 19 -26 36 -14 39 -14 41 0 32 7 -4 10 -1 7 7 -3 8 -11 13 -17 12 -6 -2 -11 4 -11 12 0 19 14 19 29 1z m5861 -31 c0 -12 -20 6 -31 28 l-11 22 21 -22 c11 -12 21 -25 21 -28z m-5794 -27 c15 -29 44 -79 65 -111 22 -32 39 -62 39 -66 0 -18 76 -93 142 -142 40 -29 96 -73 124 -96 28 -24 59 -43 68 -43 33 0 14 -34 -81 -138 -128 -142 -152 -164 -164 -157 -16 10 -55 95 -82 180 -37 114 -44 145 -72 308 -25 146 -45 214 -59 200 -4 -4 -4 -1 -1 8 3 8 -1 36 -9 62 -19 63 -3 60 30 -5z m41 -26 c7 -8 10 -18 7 -24 -4 -6 -15 4 -25 23 -20 37 -26 67 -7 34 7 -11 18 -26 25 -33z m6480 -62 c199 -128 262 -182 419 -360 26 -30 55 -54 62 -53 10 1 11 -2 4 -9 -8 -8 -66 31 -194 128 -267 202 -313 236 -356 265 -40 27 -106 127 -77 115 9 -3 72 -42 142 -86z m-5331 -28 c12 -80 90 -280 143 -364 15 -24 53 -92 86 -153 32 -60 75 -135 95 -165 20 -30 69 -110 108 -177 71 -123 162 -262 234 -360 26 -36 34 -53 24 -53 -22 0 -229 132 -306 195 -76 63 -151 140 -202 210 -94 129 -432 404 -553 451 -50 19 -55 32 -24 60 12 10 81 96 154 189 147 189 187 231 206 219 9 -5 11 -2 6 8 -6 17 2 32 12 22 3 -3 11 -40 17 -82z m-1098 3 c-6 -6 -13 -3 -21 10 -20 35 -16 47 7 23 14 -14 19 -27 14 -33z m1339 -87 c80 -79 168 -171 196 -206 59 -73 282 -258 474 -393 62 -44 67 -50 103 -138 21 -50 36 -91 33 -91 -2 0 -31 29 -64 65 -34 36 -66 62 -72 58 -5 -3 -7 -1 -4 4 8 13 -126 145 -263 258 -110 91 -350 313 -433 400 -27 27 -65 75 -86 105 -52 77 -54 80 -40 80 6 0 76 -64 156 -142z m-129 40 c65 -90 280 -299 507 -495 189 -163 432 -411 487 -498 25 -38 96 -160 158 -270 62 -110 137 -238 165 -285 96 -154 151 -253 242 -430 49 -96 104 -198 122 -227 18 -28 31 -59 29 -68 -2 -13 -75 56 -243 231 -437 452 -550 583 -688 794 -30 47 -96 141 -146 210 -123 168 -184 255 -245 350 -54 84 -108 158 -194 268 -29 37 -77 117 -108 177 -74 145 -94 176 -105 169 -6 -3 -3 -17 8 -32 9 -15 40 -72 68 -127 29 -58 104 -172 176 -270 70 -93 143 -202 163 -242 21 -39 78 -121 127 -182 49 -61 118 -155 154 -209 211 -322 333 -467 778 -922 208 -213 300 -315 332 -369 9 -16 -194 142 -315 245 -289 246 -423 386 -593 619 -56 77 -147 201 -202 275 -118 157 -158 217 -247 360 -36 58 -102 164 -147 235 -46 72 -120 204 -166 295 -46 91 -101 196 -124 235 -39 66 -52 103 -32 90 19 -11 20 13 1 51 -19 39 -36 104 -27 104 3 0 32 -37 65 -82z m4642 20 c0 -12 -6 -9 -26 13 -19 22 -19 22 4 8 12 -8 22 -17 22 -21z m-5837 5 c-5 -12 -3 -14 7 -8 9 6 11 4 5 -4 -5 -9 -11 -9 -17 -3 -6 6 -7 15 -4 21 11 17 16 13 9 -6z m7312 -44 c9 -17 14 -33 11 -36 -4 -4 -36 49 -36 62 0 13 11 2 25 -26z m-4865 -99 c104 -167 123 -200 111 -200 -5 0 -21 19 -35 43 -14 23 -29 42 -33 42 -4 0 -7 5 -5 12 1 6 -17 42 -41 80 -75 118 -89 143 -80 143 4 -1 42 -55 83 -120z m-2910 71 c11 -23 17 -47 13 -57 -3 -10 -2 -15 3 -12 5 3 10 -8 10 -25 1 -17 6 -33 13 -35 6 -2 11 -10 11 -18 0 -9 5 -12 12 -8 8 5 9 2 5 -10 -4 -10 -7 -23 -7 -29 -1 -19 -29 34 -41 78 -6 22 -16 44 -23 48 -8 6 -8 10 2 14 6 2 12 9 12 14 0 6 -4 8 -9 4 -12 -7 -31 26 -31 54 0 30 7 26 30 -18z m7846 -148 c-3 -4 -13 10 -21 30 -21 51 -18 59 6 14 11 -22 18 -41 15 -44z m-1376 22 l25 -30 -33 29 c-17 17 -32 34 -32 40 0 6 3 6 8 1 4 -6 18 -23 32 -40z m414 -84 c28 -70 31 -80 17 -65 -9 8 -61 131 -61 143 0 16 22 -22 44 -78z m-6794 19 c0 -5 -4 -10 -10 -10 -5 0 -10 5 -10 10 0 6 5 10 10 10 6 0 10 -4 10 -10z m317 -22 c-3 -8 -6 -5 -6 6 -1 11 2 17 5 13 3 -3 4 -12 1 -19z m463 3 c13 -25 13 -71 0 -71 -5 0 -10 4 -10 9 0 5 -11 19 -24 32 -18 17 -22 27 -14 36 15 19 36 16 48 -6z m3764 -131 c63 -96 130 -212 101 -175 -17 22 -204 304 -212 320 -14 30 57 -63 111 -145z m-4217 88 c-3 -8 -6 -5 -6 6 -1 11 2 17 5 13 3 -3 4 -12 1 -19z m756 -114 c84 -43 183 -110 252 -171 35 -32 98 -86 139 -121 44 -37 97 -94 127 -137 72 -105 239 -243 514 -426 88 -59 185 -151 210 -199 l16 -31 -98 49 c-54 27 -129 64 -168 82 -38 18 -94 48 -123 67 -29 18 -55 33 -58 33 -3 0 -49 32 -102 72 -55 41 -200 173 -337 308 -175 171 -264 251 -326 292 -85 56 -110 81 -143 146 -14 26 -15 37 -5 48 17 20 43 17 102 -12z m-481 -119 c-107 -137 -145 -170 -55 -47 74 101 134 172 145 172 4 0 -36 -56 -90 -125z m7888 24 c15 -28 5 -23 -15 7 -9 15 -12 23 -6 20 6 -4 16 -16 21 -27z m-6036 -123 c-4 -12 -2 -16 5 -12 7 5 8 1 4 -10 -4 -12 -3 -15 5 -10 7 4 10 2 7 -6 -3 -8 1 -33 9 -56 20 -56 10 -53 -16 5 -21 47 -36 151 -18 123 5 -8 7 -23 4 -34z m-1659 -108 c10 -18 63 -80 118 -138 117 -123 155 -178 218 -320 25 -58 71 -157 102 -220 30 -63 85 -180 122 -260 37 -80 120 -248 185 -375 132 -258 196 -401 236 -531 15 -49 42 -129 61 -179 84 -220 134 -426 153 -630 6 -66 24 -186 41 -266 26 -129 38 -225 52 -406 9 -111 -11 -45 -42 145 -18 108 -50 267 -71 352 -21 85 -44 187 -51 225 -16 99 -156 513 -232 690 -151 349 -258 606 -291 695 -67 185 -181 442 -331 745 -90 181 -125 242 -165 285 -66 71 -126 158 -132 193 -7 36 3 34 27 -5z m50 16 c13 -9 30 -12 37 -8 7 4 11 4 8 1 -3 -3 40 -53 96 -110 123 -128 164 -188 289 -432 54 -104 122 -233 150 -285 45 -81 118 -231 240 -495 15 -33 45 -105 67 -160 22 -55 69 -168 104 -251 98 -231 150 -437 178 -709 28 -265 39 -428 27 -399 -5 11 -17 86 -26 165 -27 240 -57 362 -170 694 -104 304 -207 546 -292 682 -30 49 -73 135 -73 148 0 5 -87 191 -235 500 -26 55 -70 150 -96 210 -63 141 -100 194 -231 332 -95 98 -122 133 -103 133 3 0 17 -7 30 -16z m3522 -149 c89 -118 346 -505 340 -512 -3 -2 -41 50 -86 117 -45 66 -116 169 -159 228 -43 59 -84 116 -90 128 -6 12 -27 41 -47 64 -20 24 -45 62 -56 84 l-20 41 21 -25 c11 -14 55 -70 97 -125z m-3576 34 c6 -12 37 -50 68 -83 32 -34 73 -89 92 -121 67 -116 357 -727 379 -800 7 -22 22 -60 33 -85 11 -25 53 -124 92 -220 135 -327 193 -465 234 -557 49 -112 182 -514 210 -638 64 -278 114 -523 127 -615 8 -58 23 -157 35 -220 19 -104 23 -238 7 -200 -13 30 -107 377 -117 430 -5 30 -16 89 -24 130 -9 41 -23 116 -32 165 -10 53 -41 149 -75 235 -52 132 -94 228 -315 730 -126 286 -223 524 -398 980 -85 220 -83 215 -136 453 -22 96 -49 194 -61 218 -25 49 -129 185 -139 182 -4 -1 -7 7 -7 18 0 25 13 24 27 -2z m4934 -16 c8 -20 13 -38 10 -41 -4 -4 -35 59 -35 73 0 15 12 1 25 -32z m-3154 -81 c6 -16 6 -21 -2 -16 -14 8 -49 91 -48 112 0 15 25 -31 50 -96z m-2228 84 c-11 -19 -258 -307 -323 -376 -129 -138 36 67 224 278 97 109 115 127 99 98z m582 -318 c13 -51 33 -139 45 -196 21 -106 29 -129 124 -372 32 -80 86 -219 121 -310 34 -91 82 -208 105 -260 23 -52 93 -212 155 -355 62 -143 140 -322 174 -397 75 -173 196 -487 216 -564 8 -32 15 -74 14 -94 l-1 -35 -10 35 c-5 19 -19 67 -30 105 -56 201 -131 368 -334 751 -84 160 -187 367 -228 460 -40 93 -104 230 -143 304 -69 135 -168 409 -212 585 -18 73 -101 541 -101 568 1 34 84 -145 105 -225z m2498 -336 c14 -45 21 -80 17 -77 -10 6 -60 157 -60 178 1 22 18 -17 43 -101z m-3493 -186 c0 -2 -8 -10 -17 -17 -16 -13 -17 -12 -4 4 13 16 21 21 21 13z m-246 -348 c-34 -59 -222 -318 -231 -318 -5 0 1 10 50 85 71 107 217 295 181 233z m3917 -35 c13 -16 12 -17 -3 -4 -17 13 -22 21 -14 21 2 0 10 -8 17 -17z m167 -273 c107 -150 152 -229 272 -472 61 -125 127 -248 146 -274 20 -25 34 -47 32 -49 -2 -2 -66 52 -143 120 -149 132 -159 145 -225 304 -19 46 -58 132 -86 190 -28 58 -65 152 -83 208 -17 56 -34 110 -37 120 -8 26 46 -38 124 -147z m-397 -3 c12 -23 28 -50 37 -59 9 -11 10 -18 4 -18 -9 0 -82 112 -82 126 0 15 23 -13 41 -49z m117 -189 c40 -60 44 -68 35 -68 -5 0 -25 25 -46 55 -20 30 -33 55 -27 55 5 0 22 -19 38 -42z m-4223 -115 c-44 -69 -44 -68 -50 -61 -3 3 13 33 36 67 53 76 63 73 14 -6z m2742 -1583 c3 -23 -4 -12 -21 35 -14 39 -26 75 -25 80 1 19 41 -80 46 -115z m-4353 -1392 c-35 -60 -89 -130 -127 -166 -79 -71 -73 -53 11 38 17 19 49 58 70 87 20 29 41 52 45 53 5 0 5 -6 1 -12z" style="fill: rgb(0, 42, 58);" transform="matrix(0.036038, 0, 0, -0.036038, -15.251523, 478.360657)"/>
</svg>