<?xml version="1.0" standalone="no"?>
<svg xmlns:xlink="http://www.w3.org/1999/xlink" id="wave" style="transform:rotate(180deg); transition: 0.3s" viewBox="0 0 1440 110" version="1.1" xmlns="http://www.w3.org/2000/svg"><defs><linearGradient id="sw-gradient-0" x1="0" x2="0" y1="1" y2="0"><stop stop-color="rgba(0, 18, 25, 1)" offset="0%"/><stop stop-color="rgba(0, 18, 25, 1)" offset="100%"/></linearGradient></defs><path style="transform:translate(0, 0px); opacity:1" fill="url(#sw-gradient-0)" d="M0,88L80,86.2C160,84,320,81,480,66C640,51,800,26,960,14.7C1120,4,1280,7,1440,23.8C1600,40,1760,70,1920,71.5C2080,73,2240,48,2400,33C2560,18,2720,15,2880,23.8C3040,33,3200,55,3360,69.7C3520,84,3680,92,3840,80.7C4000,70,4160,40,4320,38.5C4480,37,4640,62,4800,64.2C4960,66,5120,44,5280,45.8C5440,48,5600,73,5760,78.8C5920,84,6080,70,6240,62.3C6400,55,6560,55,6720,49.5C6880,44,7040,33,7200,40.3C7360,48,7520,73,7680,71.5C7840,70,8000,40,8160,36.7C8320,33,8480,55,8640,69.7C8800,84,8960,92,9120,93.5C9280,95,9440,92,9600,82.5C9760,73,9920,59,10080,44C10240,29,10400,15,10560,16.5C10720,18,10880,37,11040,49.5C11200,62,11360,70,11440,73.3L11520,77L11520,110L11440,110C11360,110,11200,110,11040,110C10880,110,10720,110,10560,110C10400,110,10240,110,10080,110C9920,110,9760,110,9600,110C9440,110,9280,110,9120,110C8960,110,8800,110,8640,110C8480,110,8320,110,8160,110C8000,110,7840,110,7680,110C7520,110,7360,110,7200,110C7040,110,6880,110,6720,110C6560,110,6400,110,6240,110C6080,110,5920,110,5760,110C5600,110,5440,110,5280,110C5120,110,4960,110,4800,110C4640,110,4480,110,4320,110C4160,110,4000,110,3840,110C3680,110,3520,110,3360,110C3200,110,3040,110,2880,110C2720,110,2560,110,2400,110C2240,110,2080,110,1920,110C1760,110,1600,110,1440,110C1280,110,1120,110,960,110C800,110,640,110,480,110C320,110,160,110,80,110L0,110Z"/></svg>